<?xml version="1.0" standalone="no"?>
<!DOCTYPE svg PUBLIC "-//W3C//DTD SVG 20010904//EN"
 "http://www.w3.org/TR/2001/REC-SVG-20010904/DTD/svg10.dtd">
<svg version="1.0" xmlns="http://www.w3.org/2000/svg"
 width="800.000000pt" height="533.000000pt" viewBox="0 0 800.000000 533.000000"
 preserveAspectRatio="xMidYMid meet">

<g transform="translate(0.000000,533.000000) scale(0.100000,-0.100000)"
fill="#343e29" stroke="none">
<path d="M1480 5319 c0 -5 5 -7 10 -4 6 3 10 8 10 11 0 2 -4 4 -10 4 -5 0 -10
-5 -10 -11z"/>
<path d="M2092 5300 c0 -19 2 -27 5 -17 2 9 2 25 0 35 -3 9 -5 1 -5 -18z"/>
<path d="M2160 5326 c0 -3 14 -18 32 -35 24 -22 36 -27 45 -19 9 7 17 5 29 -7
16 -16 18 -16 27 1 10 17 11 17 19 -1 6 -15 7 -13 5 12 -3 30 -2 31 39 35 l43
3 -23 -25 c-13 -14 -34 -37 -46 -52 -18 -21 -27 -25 -40 -18 -13 7 -22 4 -35
-10 -10 -11 -13 -20 -7 -20 6 0 14 5 17 10 11 17 35 12 28 -6 -12 -32 16 -9
75 62 l60 71 -64 2 c-59 2 -64 0 -64 -19 0 -12 -4 -19 -10 -15 -5 3 -7 12 -4
19 4 10 -11 14 -60 15 -37 1 -66 0 -66 -3z"/>
<path d="M2453 5297 c-1 -26 0 -28 7 -12 11 26 12 45 3 45 -5 0 -9 -15 -10
-33z"/>
<path d="M2750 5305 c25 -27 40 -25 40 6 0 15 -7 19 -32 19 l-31 0 23 -25z"/>
<path d="M2925 5310 c20 -23 29 -21 19 4 -3 9 -13 16 -22 16 -13 0 -12 -3 3
-20z"/>
<path d="M3080 5317 c0 -7 6 -19 13 -27 6 -8 3 -7 -9 3 -29 24 -43 21 -54 -9
-14 -35 -14 -34 23 -34 22 0 28 -3 18 -9 -9 -6 -11 -14 -4 -26 12 -20 25 -6
27 26 2 43 21 15 27 -38 l6 -58 1 61 c2 79 22 90 54 33 25 -44 41 -39 36 12
-2 28 -7 34 -25 33 -18 0 -20 3 -12 17 14 28 12 29 -46 29 -38 0 -55 -4 -55
-13z"/>
<path d="M3228 5242 c3 -67 0 -98 -13 -128 -17 -38 -18 -38 -25 -14 -5 22 -11
25 -44 23 -81 -5 -120 -49 -75 -84 33 -26 64 -23 91 6 38 41 49 21 55 -106 5
-106 16 -159 30 -145 4 3 12 1 20 -5 17 -15 18 -35 1 -22 -7 5 -26 10 -43 12
-16 2 -32 7 -35 11 -3 5 -18 13 -33 19 -35 13 -74 -1 -87 -31 l-9 -23 0 22
c-1 12 4 25 9 28 22 13 8 22 -33 21 l-43 -1 33 -31 c18 -17 33 -37 33 -44 0
-7 7 -10 14 -7 9 4 13 1 10 -7 -3 -9 10 -12 46 -13 39 0 50 3 51 16 0 10 2 12
6 4 2 -7 9 -13 14 -13 6 0 8 4 4 9 -3 5 -1 12 5 16 5 3 10 1 10 -5 0 -6 5 -8
13 -3 6 4 20 6 29 5 18 -3 88 44 88 59 0 5 -14 16 -32 25 -25 13 -36 14 -50 5
-24 -15 -38 -6 -38 25 0 28 16 33 23 7 4 -16 5 -16 6 -1 0 9 -3 20 -9 23 -15
10 -12 21 16 54 22 26 24 33 13 53 -12 22 -13 22 -27 -20 -17 -51 -28 -50 -14
2 6 21 7 36 1 36 -5 0 -9 14 -9 30 0 34 14 39 29 11 6 -10 23 -21 38 -24 38
-7 111 35 119 69 3 13 15 29 25 35 43 23 1 39 -59 23 -21 -6 -21 -7 -5 -20 16
-12 13 -13 -24 -14 -46 0 -93 -15 -105 -33 -5 -7 -7 13 -6 43 3 49 6 55 28 60
14 3 26 14 28 24 2 11 0 16 -6 12 -12 -7 -52 53 -52 78 0 9 -3 16 -7 16 -5 0
-6 -40 -5 -88z"/>
<path d="M3260 5315 c14 -17 35 -21 25 -5 -3 6 -2 10 4 10 5 0 13 -4 16 -10 3
-5 13 -10 21 -10 9 0 12 5 8 12 -5 8 -2 9 9 5 10 -3 17 -2 17 3 0 6 -25 10
-56 10 -49 0 -55 -2 -44 -15z"/>
<path d="M3579 5302 c23 -33 50 -57 56 -51 2 2 -2 21 -8 42 -10 31 -16 37 -40
37 l-28 0 20 -28z"/>
<path d="M3670 5322 c-40 -6 -44 -18 -20 -56 21 -35 56 -53 91 -48 13 2 18
-11 23 -68 4 -39 4 -79 1 -90 -6 -19 -6 -19 -43 0 -20 11 -50 20 -66 20 l-29
0 19 -22 c11 -13 25 -35 32 -50 9 -21 19 -27 49 -30 l38 -3 12 -70 c6 -38 12
-82 12 -97 1 -25 -2 -28 -31 -26 -72 3 -108 -2 -108 -16 0 -25 60 -60 104 -61
36 -1 41 -4 57 -41 19 -43 24 -37 10 13 -6 22 -6 35 1 39 6 4 6 9 -3 15 -15 9
-38 205 -28 243 4 14 3 26 -2 26 -5 0 -9 39 -9 88 -1 48 -5 106 -9 130 -7 34
-6 45 6 49 8 3 21 -4 29 -16 8 -11 21 -21 29 -21 20 0 28 36 13 62 -7 13 -12
26 -11 29 2 6 -127 7 -167 1z m105 -32 c3 -5 1 -10 -4 -10 -6 0 -11 5 -11 10
0 6 2 10 4 10 3 0 8 -4 11 -10z"/>
<path d="M3885 5320 c-3 -6 1 -7 9 -4 18 7 21 14 7 14 -6 0 -13 -4 -16 -10z"/>
<path d="M3946 5309 c-2 -13 -10 -58 -16 -99 -7 -41 -17 -81 -23 -88 -5 -7 -7
-16 -3 -19 4 -4 -4 -13 -16 -21 -13 -7 -15 -11 -5 -8 9 3 17 2 18 -2 0 -4 2
-19 4 -34 4 -33 6 -32 -33 -12 -31 15 -72 12 -72 -7 0 -5 4 -9 8 -9 4 0 14
-16 21 -36 12 -33 16 -36 45 -31 l31 5 -4 -44 c-2 -29 1 -44 9 -44 7 0 11 22
9 68 -2 112 0 134 13 130 22 -8 40 19 29 41 -6 11 -16 21 -21 23 -8 2 -6 34 5
101 10 54 15 101 12 104 -4 3 -8 -5 -11 -18z"/>
<path d="M4286 5238 c-4 -51 -13 -105 -21 -121 -11 -23 -11 -29 0 -40 17 -17
9 -217 -9 -218 -11 0 -35 -4 -92 -14 -18 -3 -37 -12 -43 -19 -18 -21 75 -29
106 -9 19 12 23 13 23 2 0 -12 2 -12 9 0 16 25 22 -7 16 -86 -4 -60 -3 -71 5
-48 6 17 10 110 10 208 0 109 4 186 11 199 10 18 12 18 29 3 15 -13 18 -14 23
-1 4 11 14 12 41 6 46 -10 46 3 0 25 -34 16 -47 16 -86 0 -17 -7 -17 1 -11 99
3 58 4 106 1 106 -3 0 -8 -42 -12 -92z"/>
<path d="M4398 5323 c7 -3 16 -2 19 1 4 3 -2 6 -13 5 -11 0 -14 -3 -6 -6z"/>
<path d="M4641 5268 c-1 -71 -4 -76 -34 -53 -16 12 -22 11 -43 -7 -32 -29 -15
-52 33 -43 l33 6 0 -44 c0 -24 -3 -72 -6 -106 -6 -57 -9 -62 -28 -58 -12 3
-30 2 -40 -2 -18 -7 -18 -8 -2 -14 12 -5 15 -13 11 -26 -4 -14 1 -20 22 -26
15 -3 31 -12 35 -18 4 -7 8 -92 8 -189 l0 -178 -26 0 c-22 0 -24 -3 -15 -14
10 -11 7 -17 -11 -30 -12 -9 -28 -16 -36 -16 -7 0 -10 -4 -7 -10 10 -16 57
-12 77 7 10 9 21 14 23 11 3 -3 10 -41 15 -84 l9 -79 -3 88 c-2 56 1 87 8 87
6 0 3 5 -6 11 -15 8 -18 25 -18 94 0 50 4 85 10 85 6 0 10 -5 10 -12 0 -6 3
-8 7 -5 3 4 -1 15 -10 24 -12 14 -16 45 -18 130 -1 62 0 115 3 118 3 3 27 -6
55 -20 40 -21 54 -24 76 -16 36 14 34 27 -5 51 -34 21 -114 28 -103 10 3 -5
-3 -10 -13 -10 -19 0 -20 5 -15 103 3 56 9 107 13 112 4 6 4 51 0 100 l-7 90
-2 -67z"/>
<path d="M5027 5311 c4 -17 0 -18 -43 -13 -31 3 -45 1 -41 -5 4 -6 0 -14 -9
-17 -12 -4 -15 -2 -10 9 4 13 2 14 -14 5 -16 -8 -18 -15 -11 -29 23 -42 99
-72 120 -47 7 9 17 13 22 10 12 -7 12 -94 0 -94 -5 0 -7 9 -4 19 4 16 1 19
-18 14 -18 -5 -21 -3 -16 11 4 11 3 15 -4 11 -5 -4 -8 -12 -6 -18 2 -7 -3 -17
-12 -23 -13 -10 -13 -13 1 -28 18 -18 48 -22 48 -6 0 6 6 9 12 8 7 -2 14 8 16
22 3 18 12 4 37 -60 18 -47 31 -86 30 -88 -2 -2 -12 1 -23 7 -12 7 -35 7 -63
2 -47 -9 -42 -12 33 -20 7 0 -3 -9 -22 -20 -19 -10 -42 -16 -50 -14 -9 3 -8
-1 4 -11 11 -9 25 -16 30 -17 6 0 2 -4 -9 -9 -19 -8 -19 -9 2 -9 12 -1 23 -9
25 -18 3 -14 9 -10 26 17 22 35 31 35 12 -1 -12 -21 -1 -26 17 -8 7 7 9 25 6
40 -3 18 -1 29 6 29 6 0 11 -10 11 -22 0 -16 3 -19 8 -10 6 9 13 0 21 -28 11
-37 31 -55 31 -28 0 6 3 8 6 5 4 -4 20 3 35 14 24 17 27 24 19 39 -11 20 -52
22 -80 5 -9 -5 -11 -4 -6 4 4 6 -2 27 -13 45 -26 41 -48 143 -34 157 6 6 20 5
40 -2 25 -8 38 -7 62 5 27 14 51 43 51 61 0 9 -80 2 -86 -7 -10 -16 -24 -7
-24 15 0 30 -26 66 -56 77 -13 5 -24 17 -25 27 0 14 -2 13 -9 -4 -12 -28 -30
-30 -30 -3 0 11 -4 20 -9 20 -5 0 -7 -8 -4 -19z m54 -44 c8 -7 24 -27 34 -44
11 -18 24 -33 30 -34 5 0 1 -4 -10 -8 -27 -11 -35 -5 -35 28 0 20 -7 31 -25
39 -14 6 -25 16 -25 22 0 13 11 12 31 -3z m3 -49 c8 -32 7 -40 -3 -34 -11 7
-21 56 -11 56 4 0 10 -10 14 -22z"/>
<path d="M5360 5324 c0 -16 39 -44 61 -44 19 0 28 -6 32 -22 8 -29 2 -34 -28
-20 -32 15 -75 16 -75 2 0 -6 10 -24 21 -39 12 -16 18 -34 14 -40 -8 -14 12
-41 31 -41 29 0 54 -39 54 -85 l0 -45 -47 6 c-44 5 -46 4 -29 -10 17 -14 14
-42 -4 -31 -5 3 -11 1 -15 -5 -3 -5 -2 -10 4 -10 5 0 22 -5 38 -11 15 -7 37
-12 48 -13 20 -1 21 -2 44 -131 5 -27 5 -57 1 -66 -5 -9 -6 -41 -3 -71 5 -53
5 -55 -21 -62 -14 -3 -26 -11 -26 -16 0 -14 22 -12 44 5 14 10 22 12 27 4 3
-6 9 1 11 16 4 17 1 28 -8 32 -20 7 -17 23 4 23 26 1 63 25 77 50 9 17 9 30
-1 59 -15 45 -37 51 -60 15 -16 -24 -19 -25 -25 -8 -11 28 -11 164 0 164 6 0
13 -4 16 -10 9 -14 55 -8 55 7 0 8 13 13 35 13 36 0 47 13 20 24 -19 7 -76 -3
-94 -18 -11 -9 -13 -7 -7 12 5 16 3 22 -8 22 -12 0 -15 12 -15 54 1 75 8 82
53 55 27 -15 45 -20 70 -15 44 8 74 41 60 64 -13 21 -113 29 -145 12 -29 -16
-37 -5 -45 62 -8 67 -1 96 20 79 21 -18 59 -16 94 4 17 11 32 23 32 28 0 4
-70 7 -155 6 -85 -1 -155 -3 -155 -5z m140 -31 c1 -5 3 -32 6 -60 6 -52 -3
-66 -24 -40 -6 6 -11 30 -12 52 -3 54 -2 55 15 55 8 0 15 -3 15 -7z m16 -229
c-3 -26 -6 -65 -6 -88 -1 -38 -2 -40 -15 -22 -28 37 -15 156 17 156 7 0 9 -15
4 -46z"/>
<path d="M6310 5264 c0 -39 -4 -63 -10 -59 -5 3 -18 -12 -28 -34 -19 -38 -19
-39 -1 -28 25 15 31 6 37 -53 2 -27 9 -50 14 -50 5 0 4 -10 -3 -22 -11 -22
-10 -22 6 -6 15 14 16 20 5 32 -8 11 -10 30 -6 61 8 47 14 53 34 33 9 -9 12
-9 12 0 0 7 -6 12 -12 12 -9 0 -8 4 2 11 13 9 13 10 -2 6 -22 -8 -28 12 -28
94 0 39 -4 69 -10 69 -6 0 -10 -29 -10 -66z m-4 -101 c-10 -10 -19 5 -10 18 6
11 8 11 12 0 2 -7 1 -15 -2 -18z"/>
<path d="M6658 5290 c-2 -22 -1 -40 3 -40 4 0 9 18 11 40 2 22 1 40 -3 40 -4
0 -9 -18 -11 -40z"/>
<path d="M7082 5318 c-6 -6 -12 -19 -12 -27 0 -9 -7 -29 -15 -44 -10 -20 -12
-34 -5 -47 5 -9 6 -21 2 -25 -4 -4 3 -2 16 4 17 9 21 18 17 32 -4 11 -3 34 1
52 l8 32 7 -35 6 -35 1 35 c1 50 -10 74 -26 58z"/>
<path d="M6904 5293 c3 -14 9 -29 14 -32 5 -3 14 -16 21 -28 12 -23 64 -33 75
-14 5 8 -49 26 -67 22 -5 -1 -6 3 -3 8 4 5 0 11 -6 14 -7 2 -9 8 -5 13 4 5 11
3 15 -3 9 -14 62 -36 70 -29 2 3 -10 19 -27 37 -21 21 -38 29 -51 26 -11 -3
-20 -1 -20 4 0 5 -5 9 -10 9 -6 0 -8 -12 -6 -27z"/>
<path d="M2685 5280 c-13 -15 -21 -17 -31 -9 -9 8 -16 5 -24 -12 -10 -17 -9
-23 1 -30 9 -5 24 2 44 21 37 36 57 39 51 8 -3 -13 -7 -47 -11 -76 -9 -79 -12
-83 -54 -77 -60 8 -69 -7 -28 -49 37 -38 55 -44 75 -24 10 10 20 5 47 -25 33
-35 67 -48 80 -28 11 18 -55 80 -92 87 -29 5 -34 10 -29 28 2 11 10 50 16 86
6 36 13 76 16 88 3 15 1 21 -6 17 -5 -3 -10 -1 -10 4 0 18 -26 12 -45 -9z"/>
<path d="M3323 5235 c0 -27 2 -38 4 -22 2 15 2 37 0 50 -2 12 -4 0 -4 -28z"/>
<path d="M2983 5225 c0 -22 2 -30 4 -17 2 12 2 30 0 40 -3 9 -5 -1 -4 -23z"/>
<path d="M6422 5240 c-18 -11 -30 -24 -27 -29 3 -5 -1 -12 -7 -14 -9 -4 -8 -6
2 -6 17 -1 70 44 70 59 0 13 0 13 -38 -10z"/>
<path d="M2209 5205 c-2 -27 -3 -58 -2 -68 0 -11 -5 -16 -14 -12 -8 3 -17 5
-19 5 -2 0 -4 7 -4 15 0 22 -22 65 -34 65 -6 0 -5 -5 2 -12 14 -14 16 -42 2
-33 -5 3 -10 2 -10 -3 0 -6 8 -13 18 -18 13 -6 8 -9 -22 -13 -51 -8 -54 -20
-12 -49 24 -16 41 -21 60 -16 l26 6 -24 -28 c-13 -16 -36 -42 -50 -59 l-25
-30 3 50 c2 28 1 36 -1 18 -2 -18 -18 -46 -36 -64 -18 -18 -24 -27 -14 -20 14
12 17 11 17 -3 0 -10 -11 -19 -29 -22 -34 -7 -32 -24 6 -49 20 -13 27 -14 40
-3 13 10 19 8 39 -17 l24 -30 -3 41 c-1 28 -6 40 -14 37 -21 -8 -43 5 -37 21
3 9 9 15 12 14 24 -3 33 4 28 20 -8 25 53 109 65 90 6 -9 9 -6 10 12 l1 25 8
-25 c7 -21 8 -22 9 -4 1 11 6 25 13 32 8 8 8 12 1 12 -10 0 -13 26 -13 104 -1
16 -5 36 -10 45 -7 12 -10 3 -11 -34z"/>
<path d="M3621 5208 c1 -18 1 -52 0 -75 -1 -41 -2 -42 -25 -31 -14 6 -32 8
-40 5 -18 -7 -22 -37 -5 -37 5 0 24 -15 42 -34 18 -18 40 -36 51 -40 16 -5 17
-3 11 21 -3 16 -13 35 -21 44 -11 12 -12 23 -5 42 13 33 12 137 -1 137 -5 0
-9 -15 -7 -32z"/>
<path d="M6657 5216 c-3 -8 -2 -18 3 -21 13 -8 24 15 12 27 -6 6 -11 4 -15 -6z"/>
<path d="M1893 5175 c0 -22 2 -30 4 -17 2 12 2 30 0 40 -3 9 -5 -1 -4 -23z"/>
<path d="M4726 5198 c4 -7 3 -8 -4 -4 -7 4 -18 1 -26 -6 -33 -31 39 -84 89
-64 26 10 17 45 -17 66 -37 22 -53 26 -42 8z"/>
<path d="M7104 5195 c5 -11 10 -56 12 -101 2 -44 8 -93 14 -108 5 -15 10 -33
10 -41 0 -23 12 -45 21 -39 5 2 0 28 -11 57 -11 29 -20 75 -20 104 0 44 3 52
21 55 l20 3 -20 22 c-12 12 -21 26 -21 31 0 5 -8 16 -17 23 -15 12 -16 12 -9
-6z"/>
<path d="M7189 5198 c9 -12 10 -22 2 -37 -18 -32 -14 -43 9 -31 23 13 20 44
-8 70 -14 13 -15 13 -3 -2z"/>
<path d="M2100 5171 c0 -25 6 -27 13 -6 4 8 2 17 -3 20 -6 4 -10 -3 -10 -14z"/>
<path d="M2258 5155 c-23 -31 -23 -42 1 -21 16 15 19 15 24 1 4 -9 1 -15 -8
-15 -8 0 -15 -9 -15 -19 0 -22 67 -84 81 -76 16 10 10 44 -11 65 -11 11 -20
22 -20 24 0 2 20 7 45 10 52 8 56 17 18 41 -22 15 -25 15 -20 2 9 -25 -24 -30
-48 -7 -26 25 -26 25 -47 -5z"/>
<path d="M2982 5110 c0 -19 2 -27 5 -17 2 9 2 25 0 35 -3 9 -5 1 -5 -18z"/>
<path d="M1385 5103 c-15 -22 -15 -25 -3 -15 14 11 18 10 27 -5 9 -15 10 -12
5 12 -9 40 -9 40 -29 8z"/>
<path d="M6640 5123 c0 -13 29 -38 35 -31 3 3 -4 13 -15 23 -11 10 -20 13 -20
8z"/>
<path d="M4171 5106 c-18 -21 43 -63 65 -45 8 7 13 18 10 24 -2 7 1 18 7 24 8
8 0 11 -30 11 -23 0 -46 -6 -52 -14z m69 -25 c0 -13 -28 -22 -35 -11 -3 4 1
11 7 13 20 8 28 8 28 -2z"/>
<path d="M6997 5023 c-23 -67 -26 -87 -16 -94 7 -4 16 -6 20 -3 4 2 9 -1 11
-8 4 -10 11 -10 34 0 26 11 27 11 10 -3 -25 -19 -16 -28 17 -16 23 9 24 12 14
35 -7 14 -23 28 -36 31 -20 5 -22 8 -10 16 10 7 6 8 -13 3 -16 -3 -28 -5 -28
-3 0 2 9 32 19 67 29 94 10 74 -22 -25z"/>
<path d="M1920 5085 c0 -8 12 -22 26 -31 20 -13 33 -15 60 -8 20 5 35 14 35
19 -2 14 -51 26 -84 20 -17 -3 -26 -1 -22 5 3 6 1 10 -4 10 -6 0 -11 -7 -11
-15z"/>
<path d="M6606 5085 c4 -8 10 -12 15 -9 14 8 10 24 -6 24 -9 0 -12 -6 -9 -15z"/>
<path d="M2873 5067 c-3 -5 -11 -6 -17 -4 -7 3 -19 1 -27 -3 -8 -6 -17 -4 -22
3 -6 9 -7 8 -5 -3 5 -18 57 -48 85 -49 39 -2 54 9 42 30 -5 11 -7 23 -5 28 3
5 -6 8 -20 7 -14 0 -28 -5 -31 -9z"/>
<path d="M5254 5056 c-3 -7 -21 -22 -40 -32 -53 -29 -42 -64 21 -64 26 0 75
54 75 82 0 26 -47 38 -56 14z"/>
<path d="M6606 5020 c-4 -26 -12 -40 -21 -40 -8 0 -21 -12 -28 -27 -15 -29
-12 -53 7 -65 6 -4 9 -25 7 -47 -1 -26 2 -41 9 -41 6 0 9 4 5 9 -11 19 13 20
30 1 23 -25 40 -25 65 0 16 16 18 24 9 47 -13 34 -26 43 -62 43 -26 0 -28 3
-23 28 10 52 18 132 13 132 -2 0 -7 -18 -11 -40z m-26 -112 c0 -16 -3 -19 -11
-11 -6 6 -8 16 -5 22 11 17 16 13 16 -11z"/>
<path d="M6820 5041 c0 -53 66 -96 108 -70 19 12 19 13 -9 41 -30 31 -99 50
-99 29z"/>
<path d="M3043 5023 c-7 -2 -13 -13 -13 -24 0 -23 1 -23 33 -6 20 11 23 17 15
25 -13 13 -16 13 -35 5z"/>
<path d="M2233 4970 c0 -25 2 -35 4 -22 2 12 2 32 0 45 -2 12 -4 2 -4 -23z"/>
<path d="M2693 4950 c0 -36 2 -50 4 -32 2 17 2 47 0 65 -2 17 -4 3 -4 -33z"/>
<path d="M3180 5003 c0 -5 5 -15 10 -23 8 -12 10 -11 10 8 0 12 -4 22 -10 22
-5 0 -10 -3 -10 -7z"/>
<path d="M2185 4989 c-4 -6 -5 -12 -2 -15 2 -3 7 2 10 11 7 17 1 20 -8 4z"/>
<path d="M3630 4985 c-1 -5 -1 -45 0 -87 l1 -78 -27 10 c-44 17 -46 -2 -3 -57
l39 -52 -6 -71 c-6 -63 -10 -73 -31 -81 -26 -10 -29 -21 -10 -41 7 -7 20 -25
30 -40 11 -17 23 -25 32 -22 21 9 19 22 -10 56 -20 24 -23 33 -14 44 14 17 18
171 5 197 -6 14 -1 20 25 33 19 8 24 13 12 11 -25 -6 -35 12 -27 51 3 15 1 52
-4 82 -5 30 -11 51 -12 45z"/>
<path d="M3003 4930 c0 -25 2 -35 4 -22 2 12 2 32 0 45 -2 12 -4 2 -4 -23z"/>
<path d="M1872 4935 c0 -16 2 -22 5 -12 2 9 2 23 0 30 -3 6 -5 -1 -5 -18z"/>
<path d="M2156 4944 c-3 -9 -6 -20 -6 -25 0 -15 37 -10 51 7 12 15 11 16 -10
9 -20 -6 -23 -4 -18 9 4 9 2 16 -2 16 -5 0 -12 -7 -15 -16z"/>
<path d="M3186 4951 c-4 -7 -5 -15 -2 -18 9 -9 19 4 14 18 -4 11 -6 11 -12 0z"/>
<path d="M4527 4934 c3 -8 11 -14 19 -14 21 0 17 17 -5 23 -14 3 -18 1 -14 -9z"/>
<path d="M6302 4937 c-20 -24 -37 -167 -20 -167 4 0 8 20 8 44 0 24 3 58 6 75
7 31 7 31 28 14 11 -10 15 -11 9 -3 -20 22 -15 32 8 19 15 -8 19 -8 15 0 -13
21 -43 31 -54 18z"/>
<path d="M7095 4941 c-3 -5 2 -11 10 -15 11 -4 15 -22 15 -75 0 -55 5 -78 25
-112 20 -35 25 -39 25 -21 0 12 -9 30 -20 39 -17 15 -20 30 -20 99 0 63 -3 83
-15 87 -8 4 -17 2 -20 -2z"/>
<path d="M1284 4923 c-4 -10 -8 -22 -9 -28 0 -5 -6 -9 -13 -7 -7 1 -12 -4 -12
-11 0 -7 9 -13 19 -14 13 -1 19 4 19 15 -1 9 2 27 6 40 9 26 2 30 -10 5z"/>
<path d="M3360 4919 c0 -4 -3 -15 -7 -25 -5 -13 -3 -16 10 -11 8 3 17 2 19 -4
2 -5 14 -2 26 7 15 10 20 20 14 26 -12 12 -62 18 -62 7z"/>
<path d="M2240 4915 c0 -20 34 -84 43 -78 5 3 16 -2 23 -11 15 -21 59 -18 59
4 0 8 -13 21 -30 29 -16 8 -32 18 -33 23 -4 10 -62 41 -62 33z"/>
<path d="M4980 4909 c0 -5 5 -7 10 -4 6 3 10 8 10 11 0 2 -4 4 -10 4 -5 0 -10
-5 -10 -11z"/>
<path d="M6952 4890 c0 -14 2 -19 5 -12 2 6 2 18 0 25 -3 6 -5 1 -5 -13z"/>
<path d="M3300 4880 c6 -11 17 -20 25 -20 18 0 20 26 3 36 -7 5 -8 2 -3 -7 6
-11 5 -12 -6 -1 -20 19 -31 14 -19 -8z"/>
<path d="M2926 4881 c-28 -6 -28 -6 -8 -24 18 -17 25 -17 56 -6 20 7 36 17 36
23 0 5 -3 7 -6 3 -3 -3 -16 -2 -28 2 -11 4 -34 5 -50 2z"/>
<path d="M4322 4875 c-21 -15 -21 -17 -6 -40 18 -28 50 -35 40 -10 -4 10 5 22
25 34 24 15 27 20 14 25 -27 10 -49 7 -73 -9z"/>
<path d="M1871 4864 c0 -11 3 -14 6 -6 3 7 2 16 -1 19 -3 4 -6 -2 -5 -13z"/>
<path d="M1955 4873 c-26 -6 -39 -19 -27 -27 5 -3 21 3 33 14 13 11 22 19 19
19 -3 -1 -14 -3 -25 -6z"/>
<path d="M5135 4870 c-4 -6 -6 -46 -5 -88 2 -94 1 -103 -10 -74 -7 16 -18 22
-40 22 -64 0 -96 -39 -59 -71 27 -23 41 -24 80 -3 17 8 33 13 35 11 3 -2 8
-43 11 -91 3 -48 10 -89 15 -92 5 -3 6 12 4 33 -18 141 -18 140 10 147 30 8
27 30 -4 34 -24 4 -29 34 -23 135 2 46 -2 57 -14 37z"/>
<path d="M2682 4840 c0 -19 2 -27 5 -17 2 9 2 25 0 35 -3 9 -5 1 -5 -18z"/>
<path d="M1983 4848 c-13 -6 -23 -15 -23 -20 0 -13 67 -9 79 5 21 26 -14 35
-56 15z"/>
<path d="M3101 4844 c0 -11 3 -14 6 -6 3 7 2 16 -1 19 -3 4 -6 -2 -5 -13z"/>
<path d="M5180 4845 c0 -5 5 -17 10 -25 5 -8 10 -10 10 -5 0 6 -5 17 -10 25
-5 8 -10 11 -10 5z"/>
<path d="M2071 4803 c0 -29 2 -33 8 -18 7 18 4 55 -5 55 -2 0 -4 -17 -3 -37z"/>
<path d="M2240 4811 c0 -17 4 -32 8 -35 4 -2 6 11 4 30 -5 42 -12 45 -12 5z"/>
<path d="M3930 4834 c0 -13 29 -74 36 -74 2 0 4 9 4 19 0 20 -39 74 -40 55z"/>
<path d="M3897 4813 c-6 -10 29 -60 37 -52 3 2 -3 17 -13 33 -10 15 -21 24
-24 19z"/>
<path d="M6347 4813 c-4 -3 -7 -11 -7 -17 0 -6 5 -5 12 2 6 6 9 14 7 17 -3 3
-9 2 -12 -2z"/>
<path d="M2654 4783 c-11 -10 -15 -15 -10 -10 21 16 26 4 27 -65 1 -40 5 -100
9 -133 6 -46 7 -31 5 62 -2 66 1 125 7 131 5 5 3 13 -5 21 -11 9 -19 7 -33 -6z"/>
<path d="M5204 4788 c4 -13 0 -18 -13 -18 -33 0 -35 -33 -4 -57 15 -13 32 -23
36 -23 5 0 5 -6 1 -12 -5 -9 -2 -8 9 1 15 12 21 11 40 -5 12 -10 33 -25 47
-32 18 -9 14 -3 -12 20 -40 35 -64 83 -48 93 19 12 9 25 -14 19 -17 -4 -28 0
-36 13 -10 16 -11 16 -6 1z"/>
<path d="M6904 4740 c-10 -33 -20 -60 -23 -60 -3 0 -7 -19 -8 -43 l-1 -42 13
30 c7 16 10 36 7 45 -5 13 -3 13 11 1 9 -7 17 -19 17 -27 0 -24 20 -25 51 -3
35 25 26 39 -28 39 -37 0 -40 10 -22 73 17 64 3 53 -17 -13z"/>
<path d="M6582 4750 c-1 -25 -5 -55 -8 -67 -8 -30 32 -43 51 -16 20 25 18 32
-9 39 -21 5 -26 13 -29 47 l-4 42 -1 -45z"/>
<path d="M1172 4739 c-7 -11 -11 -24 -8 -27 10 -9 28 15 24 32 -2 14 -5 13
-16 -5z"/>
<path d="M2060 4736 c0 -31 6 -34 13 -6 3 11 1 23 -4 26 -5 3 -9 -6 -9 -20z"/>
<path d="M3840 4744 c0 -9 8 -29 17 -45 29 -48 105 -32 89 19 -12 36 -106 60
-106 26z"/>
<path d="M5274 4735 c3 -28 34 -67 47 -59 17 10 9 53 -13 68 -31 22 -37 20
-34 -9z"/>
<path d="M6744 4745 c-3 -8 4 -28 16 -45 23 -33 59 -40 80 -15 7 8 16 13 20
10 4 -3 11 2 14 11 4 9 5 17 4 18 -2 1 -17 9 -35 19 -38 21 -92 22 -99 2z"/>
<path d="M6240 4735 c0 -8 4 -15 10 -15 5 0 7 7 4 15 -4 8 -8 15 -10 15 -2 0
-4 -7 -4 -15z"/>
<path d="M4706 4725 c4 -8 13 -15 21 -15 8 0 11 -5 8 -10 -4 -6 -9 -8 -13 -6
-4 2 -15 -2 -25 -9 -13 -10 -15 -15 -5 -22 29 -23 57 -24 77 -4 30 30 26 50
-14 67 -44 18 -56 18 -49 -1z"/>
<path d="M7115 4730 c-5 -9 -4 -15 3 -18 7 -2 10 -8 6 -13 -3 -5 0 -9 5 -9 12
0 13 7 2 34 -6 16 -9 17 -16 6z"/>
<path d="M5446 4721 c-3 -4 -17 -7 -31 -6 -14 2 -25 -1 -25 -6 0 -5 14 -9 32
-9 30 0 31 0 13 -20 -22 -24 -14 -25 25 -5 35 18 42 55 11 55 -11 0 -22 -4
-25 -9z"/>
<path d="M6284 4628 c2 -70 7 -85 26 -73 8 5 7 10 -4 18 -9 8 -17 33 -19 67
-3 45 -4 43 -3 -12z"/>
<path d="M2051 4674 c0 -11 3 -14 6 -6 3 7 2 16 -1 19 -3 4 -6 -2 -5 -13z"/>
<path d="M2250 4660 c-5 -32 -8 -35 -34 -32 -31 3 -86 -15 -86 -29 0 -11 79
-32 96 -25 10 4 14 -4 15 -27 1 -23 4 -17 11 23 5 30 7 71 5 90 l-3 35 -4 -35z"/>
<path d="M3276 4675 c-7 -20 24 -20 50 0 18 14 17 14 -12 15 -19 0 -34 -6 -38
-15z"/>
<path d="M4335 4680 c-3 -5 -2 -10 4 -10 5 0 13 5 16 10 3 6 2 10 -4 10 -5 0
-13 -4 -16 -10z"/>
<path d="M1999 4644 c-18 -37 -14 -42 16 -20 15 11 17 18 10 34 -9 19 -11 18
-26 -14z"/>
<path d="M3170 4646 c0 -20 2 -36 4 -36 8 0 12 61 4 66 -4 3 -8 -11 -8 -30z"/>
<path d="M7137 4634 c6 -68 11 -77 12 -24 0 25 -3 51 -8 59 -5 8 -7 -5 -4 -35z"/>
<path d="M1966 4655 c-10 -8 -24 -12 -30 -8 -6 3 -4 -2 6 -12 18 -20 33 -15
41 15 3 11 4 20 4 20 -1 0 -11 -7 -21 -15z"/>
<path d="M6994 4635 c-34 -29 -36 -34 -18 -35 12 0 36 3 53 6 30 6 31 8 15 25
-9 10 -13 23 -9 28 11 19 0 12 -41 -24z"/>
<path d="M3887 4653 c-2 -4 -8 -23 -12 -40 -7 -37 -19 -42 -35 -15 -9 13 -10
10 -5 -19 3 -20 3 -43 -1 -52 -5 -13 -8 -13 -25 4 -14 14 -31 19 -59 17 -22
-1 -36 -6 -33 -12 4 -5 -1 -7 -10 -3 -10 4 -24 10 -32 13 -8 3 -15 1 -15 -5 0
-6 3 -10 8 -9 4 0 18 -4 32 -9 23 -10 24 -12 6 -19 -17 -7 -15 -9 15 -20 28
-10 38 -9 57 3 21 13 25 13 38 -4 15 -20 17 -44 8 -120 -6 -47 -8 -51 -25 -42
-15 7 -21 6 -25 -6 -3 -8 -13 -15 -22 -15 -8 0 -12 -3 -9 -7 4 -3 2 -12 -4
-20 -9 -10 -6 -13 13 -13 13 0 29 5 35 11 17 17 36 -64 28 -120 -3 -25 -7 -65
-9 -89 -2 -23 -6 -46 -10 -49 -3 -3 -6 -35 -6 -70 0 -48 -3 -63 -14 -63 -8 0
-16 5 -18 11 -5 14 -48 3 -48 -12 0 -6 7 -6 19 1 16 8 23 5 38 -13 24 -31 41
-24 35 15 -3 22 -1 29 7 24 6 -4 11 -4 10 1 -4 14 13 43 24 43 6 0 21 -10 34
-22 29 -27 39 -18 21 18 -15 31 -58 52 -58 29 0 -8 -4 -15 -8 -15 -5 0 -8 26
-8 58 1 31 -2 62 -7 69 -4 6 -3 14 3 18 5 3 10 35 10 71 0 65 10 80 38 52 7
-7 12 -9 12 -5 0 3 -10 15 -22 27 -12 11 -18 20 -12 20 5 0 3 4 -5 9 -11 7
-11 21 0 82 7 41 12 98 11 127 -1 41 2 52 14 52 9 0 14 6 12 12 -3 7 1 33 9
57 12 40 12 64 0 44z"/>
<path d="M5480 4641 c0 -6 5 -13 10 -16 6 -3 10 1 10 9 0 9 -4 16 -10 16 -5 0
-10 -4 -10 -9z"/>
<path d="M1140 4625 c-7 -9 -11 -18 -8 -20 3 -3 11 1 18 10 7 9 11 18 8 20 -3
3 -11 -1 -18 -10z"/>
<path d="M2278 4617 c-4 -28 38 -75 54 -59 16 16 1 57 -26 70 -22 10 -25 9
-28 -11z"/>
<path d="M3225 4571 c0 -95 12 -100 14 -6 1 41 -2 75 -6 75 -5 0 -8 -31 -8
-69z"/>
<path d="M4263 4609 c-6 -16 -7 -27 -2 -24 15 10 20 -38 12 -129 l-8 -89 -54
-3 c-30 -1 -57 -6 -60 -11 -3 -5 -22 -19 -41 -31 -35 -22 -35 -22 -8 -22 15 0
30 -5 33 -10 5 -8 11 -7 21 1 10 8 14 8 14 0 0 -18 16 -13 48 14 17 14 33 25
37 25 4 0 4 -35 1 -77 -4 -65 -3 -70 4 -33 14 66 20 129 25 277 5 132 -2 167
-22 112z"/>
<path d="M6574 4632 c-5 -4 -11 -43 -13 -86 -3 -86 -15 -131 -31 -121 -8 5 -7
11 1 21 14 17 8 18 -25 3 -28 -13 -38 -32 -29 -55 5 -14 8 -14 22 5 11 14 20
18 30 12 11 -7 11 -15 2 -42 -15 -44 -7 -47 13 -4 11 23 24 35 38 35 23 0 70
48 61 63 -3 5 -21 7 -39 4 l-34 -6 0 69 c0 48 5 73 15 84 16 15 7 30 -11 18z"/>
<path d="M1859 4606 c8 -9 25 -16 39 -16 32 0 18 15 -22 24 -26 6 -28 5 -17
-8z"/>
<path d="M3061 4605 c-1 -11 -4 -31 -8 -45 -6 -24 -6 -24 11 -7 14 14 16 23 8
45 -8 21 -11 23 -11 7z"/>
<path d="M5360 4616 c0 -2 8 -10 18 -17 15 -13 16 -12 3 4 -13 16 -21 21 -21
13z"/>
<path d="M2025 4572 c-17 -15 -24 -23 -16 -17 12 9 13 -11 8 -140 -4 -83 -6
-152 -7 -154 0 -2 -6 1 -12 6 -20 15 -57 22 -64 12 -3 -5 -17 -9 -32 -10 -24
0 -25 -1 -7 -9 11 -5 16 -9 11 -9 -5 -1 6 -12 25 -25 30 -21 36 -22 56 -10 31
19 34 18 28 -11 -3 -14 -8 -37 -11 -52 -3 -19 -2 -25 5 -18 13 14 29 110 21
127 -4 7 -3 74 1 148 5 74 7 140 4 147 -6 18 15 16 37 -4 23 -21 24 -2 1 26
l-18 21 -30 -28z"/>
<path d="M7195 4577 c-4 -15 -5 -43 -2 -62 3 -18 3 -36 0 -39 -12 -11 -33 17
-33 43 0 19 -3 22 -9 12 -5 -7 -14 -10 -20 -7 -6 4 -12 0 -13 -11 -3 -39 3
-57 28 -79 25 -24 48 -34 26 -12 -19 19 -14 34 10 35 13 1 28 10 35 19 17 24
16 85 -1 110 -14 18 -15 18 -21 -9z"/>
<path d="M3156 4559 c-3 -17 -6 -44 -6 -60 0 -29 -13 -38 -25 -18 -9 14 -28 6
-31 -14 -1 -9 4 -17 12 -17 9 0 12 -5 9 -12 -4 -7 1 -4 9 6 15 19 16 19 17
-10 0 -16 3 -23 6 -16 2 6 11 12 19 12 15 0 19 12 7 24 -4 4 -6 36 -5 72 4 69
-2 83 -12 33z"/>
<path d="M6854 4554 c-9 -52 -43 -144 -54 -144 -8 0 -23 38 -21 53 1 4 -17 7
-39 7 -34 0 -40 -3 -46 -26 -4 -17 -1 -31 9 -41 14 -15 18 -15 39 -1 19 13 28
14 46 4 13 -7 19 -16 15 -21 -4 -4 0 -5 10 -2 11 4 28 0 40 -8 26 -18 64 -19
95 -1 20 10 21 14 9 24 -8 7 -35 16 -61 21 -26 5 -50 11 -53 15 -4 3 1 38 11
77 9 39 15 73 12 76 -3 3 -8 -12 -12 -33z"/>
<path d="M5505 4514 c0 -52 -7 -60 -37 -41 -30 19 -111 30 -104 14 3 -7 9 -19
12 -29 7 -21 36 -28 81 -21 l36 6 -6 -98 c-4 -54 -8 -100 -11 -102 -2 -2 -19
6 -39 17 -34 20 -38 20 -66 5 -17 -8 -31 -20 -31 -25 0 -19 81 -62 105 -56 13
3 27 1 30 -5 10 -15 -5 -179 -15 -179 -5 0 -11 9 -15 19 -7 22 -35 32 -67 23
-21 -5 -21 -6 -2 -13 17 -7 16 -8 -6 -9 -14 -1 -33 -2 -42 -1 -25 3 -22 -6 8
-34 31 -29 44 -30 83 -11 15 8 32 11 38 8 5 -4 13 -45 16 -92 l6 -85 -47 -2
c-26 0 -60 -7 -77 -13 -28 -11 -28 -13 -10 -20 11 -5 16 -9 12 -9 -5 -1 -2 -8
7 -16 21 -21 69 -19 99 5 l26 21 5 -23 c3 -13 8 -58 11 -100 l7 -77 -31 15
c-43 21 -128 10 -137 -19 -5 -15 1 -27 20 -44 34 -29 75 -29 110 -2 41 32 50
14 54 -104 l4 -102 -29 28 c-34 32 -80 36 -112 10 -26 -22 -19 -32 40 -65 42
-23 48 -24 73 -11 15 8 29 13 31 11 2 -2 9 -53 15 -113 7 -61 14 -112 16 -114
10 -11 12 8 4 49 -5 25 -11 88 -14 140 -5 86 -22 266 -32 330 -2 14 -8 68 -13
120 -5 52 -14 115 -21 140 -10 41 -6 347 6 359 2 2 19 -4 37 -14 56 -30 118 0
90 43 -23 37 -113 34 -113 -3 0 -8 -4 -15 -10 -15 -12 0 -12 4 1 131 13 127
17 137 50 109 l24 -21 -27 4 c-30 5 -38 -7 -12 -17 9 -4 23 -1 30 5 8 7 29 8
56 4 l43 -7 -24 26 c-17 18 -35 26 -57 26 -33 0 -42 10 -39 47 1 12 -3 19 -8
16 -6 -3 -15 1 -21 9 -9 12 -11 6 -11 -28z"/>
<path d="M2715 4540 c-5 -9 53 -80 66 -80 5 0 20 9 31 20 20 19 21 22 6 36
-17 18 -96 36 -103 24z"/>
<path d="M3108 4539 c-23 -13 -23 -25 1 -32 14 -3 20 2 24 19 5 26 1 28 -25
13z"/>
<path d="M3274 4537 c-12 -14 -7 -38 10 -49 20 -14 53 -8 70 11 16 18 16 20
-6 35 -27 19 -59 20 -74 3z"/>
<path d="M2926 4518 c-13 -14 -12 -17 9 -22 25 -6 75 11 75 26 0 5 -4 6 -10 3
-5 -3 -10 -3 -10 2 0 15 -50 8 -64 -9z"/>
<path d="M979 4513 c-13 -16 -12 -17 4 -4 9 7 17 15 17 17 0 8 -8 3 -21 -13z"/>
<path d="M3897 4516 c-8 -21 31 -66 57 -66 12 0 31 7 42 15 19 15 18 16 -9 40
-31 28 -82 34 -90 11z"/>
<path d="M4720 4517 c-31 -16 -38 -46 -14 -64 29 -21 60 -16 79 14 17 26 17
27 -5 45 -26 21 -28 21 -60 5z"/>
<path d="M6286 4458 c-4 -40 -9 -94 -12 -120 -4 -32 -2 -48 5 -48 7 0 11 24
11 64 0 72 13 116 33 116 29 0 5 59 -24 60 -4 0 -10 -33 -13 -72z"/>
<path d="M1991 4504 c0 -11 3 -14 6 -6 3 7 2 16 -1 19 -3 4 -6 -2 -5 -13z"/>
<path d="M2698 4509 c-9 -5 -14 -17 -12 -26 3 -10 9 -56 14 -103 l9 -85 -5
102 c-4 77 -2 102 8 106 7 2 11 7 8 10 -3 3 -13 1 -22 -4z"/>
<path d="M2231 4494 c0 -11 3 -14 6 -6 3 7 2 16 -1 19 -3 4 -6 -2 -5 -13z"/>
<path d="M925 4490 c-3 -5 1 -10 9 -10 8 0 18 5 21 10 3 6 -1 10 -9 10 -8 0
-18 -4 -21 -10z"/>
<path d="M1862 4454 c-33 -33 -34 -36 -12 -29 14 4 28 13 32 19 4 6 12 12 18
12 5 1 15 2 20 3 6 0 10 5 10 11 0 5 -7 6 -17 3 -11 -4 -14 -3 -9 5 14 23 -5
12 -42 -24z"/>
<path d="M3200 4445 c0 -28 5 -37 30 -50 32 -16 72 -12 90 10 13 16 -10 42
-57 61 -52 22 -63 19 -63 -21z"/>
<path d="M5113 4451 c-10 -16 -9 -18 7 -14 11 3 16 11 13 19 -7 18 -6 18 -20
-5z"/>
<path d="M5209 4451 l-46 -6 -2 -70 c-2 -38 -6 -90 -10 -115 -6 -39 -10 -45
-29 -43 -12 2 -22 -1 -22 -6 0 -11 -57 -26 -85 -22 -19 3 -18 1 3 -19 31 -29
67 -28 99 1 l26 24 -6 -55 c-16 -134 -15 -148 2 -55 10 55 19 100 20 100 2 0
11 159 13 207 0 33 3 36 19 28 10 -6 28 -10 41 -10 26 0 68 25 68 41 0 10 -16
10 -91 0z"/>
<path d="M3618 4384 c0 -38 -2 -76 -2 -84 -2 -15 -17 -17 -61 -6 -29 8 -33 -8
-8 -36 9 -10 21 -28 27 -41 6 -12 21 -23 33 -25 17 -3 23 -11 26 -40 2 -20 2
37 -1 128 -5 173 -11 221 -14 104z"/>
<path d="M3006 4415 c-3 -9 -6 -26 -5 -38 1 -14 4 -9 9 13 9 37 7 52 -4 25z"/>
<path d="M6964 4411 c21 -23 26 -26 26 -11 0 5 -10 15 -22 21 -23 12 -23 12
-4 -10z"/>
<path d="M2210 4406 c0 -15 -21 -26 -51 -26 -31 0 -22 -25 16 -43 43 -21 45
-21 45 -3 0 28 22 28 49 2 25 -24 29 -25 41 -11 10 12 9 19 -4 40 -19 28 -47
32 -70 10 -22 -23 -28 -18 -21 15 4 17 4 30 1 30 -3 0 -6 -6 -6 -14z"/>
<path d="M7168 4365 c2 -14 6 -25 8 -25 2 0 4 11 4 25 0 14 -4 25 -9 25 -4 0
-6 -11 -3 -25z"/>
<path d="M2056 4365 c-3 -8 -1 -15 3 -15 5 0 11 7 15 15 3 8 1 15 -3 15 -5 0
-11 -7 -15 -15z"/>
<path d="M4280 4342 c0 -4 9 -8 20 -8 11 0 20 4 20 8 0 4 -9 8 -20 8 -11 0
-20 -4 -20 -8z"/>
<path d="M4384 4325 c15 -14 30 -25 33 -25 4 0 -4 11 -17 25 -13 14 -28 25
-33 25 -6 0 2 -11 17 -25z"/>
<path d="M3132 4320 c0 -14 2 -19 5 -12 2 6 2 18 0 25 -3 6 -5 1 -5 -13z"/>
<path d="M6335 4310 c3 -5 8 -10 11 -10 2 0 4 5 4 10 0 6 -5 10 -11 10 -5 0
-7 -4 -4 -10z"/>
<path d="M7180 4316 c0 -14 43 -96 50 -96 16 0 11 33 -10 68 -16 26 -40 43
-40 28z"/>
<path d="M2203 4255 c0 -27 2 -38 4 -22 2 15 2 37 0 50 -2 12 -4 0 -4 -28z"/>
<path d="M3915 4284 c9 -9 33 -20 53 -25 l37 -8 -25 19 c-13 10 -28 16 -32 14
-3 -2 -9 0 -13 6 -3 5 -13 10 -21 10 -13 0 -13 -2 1 -16z"/>
<path d="M2620 4276 c0 -8 5 -18 10 -21 6 -4 8 -15 5 -25 -10 -33 72 -69 90
-40 9 15 25 12 25 -4 0 -12 20 -26 36 -26 3 0 4 12 2 27 -2 18 -15 35 -38 51
-21 14 -34 30 -32 40 3 12 1 13 -10 5 -9 -8 -19 -9 -28 -3 -23 15 -60 12 -60
-4z"/>
<path d="M3250 4269 c0 -5 5 -7 10 -4 6 3 10 8 10 11 0 2 -4 4 -10 4 -5 0 -10
-5 -10 -11z"/>
<path d="M4780 4266 c-28 -9 -35 -15 -31 -31 l4 -20 8 20 c6 17 8 17 8 3 1
-24 33 -23 55 1 24 27 2 41 -44 27z"/>
<path d="M6248 4267 c-11 -27 -10 -69 2 -62 13 8 13 -41 -1 -106 -10 -48 -12
-50 -23 -28 -12 26 -66 40 -66 18 0 -34 25 -88 42 -92 23 -6 21 -18 -22 -112
l-27 -60 -17 33 c-19 38 -31 41 -40 10 -8 -30 -8 -103 0 -111 4 -3 15 4 25 16
15 18 18 19 19 5 0 -9 -4 -20 -10 -23 -13 -8 -13 -55 -1 -55 5 0 12 6 14 13 3
6 6 2 6 -9 1 -27 26 -48 47 -40 13 5 12 11 -10 37 -15 17 -26 43 -26 59 0 32
41 152 72 215 11 22 24 48 29 57 5 10 6 23 3 31 -3 8 0 42 5 77 6 37 7 68 2
74 -5 6 -11 25 -13 41 -2 24 -4 27 -10 12z"/>
<path d="M6377 4266 c-3 -8 -3 -23 -1 -33 4 -15 12 -18 39 -15 19 2 40 12 47
21 10 13 10 14 -2 4 -21 -19 -36 -16 -48 12 -13 28 -27 32 -35 11z"/>
<path d="M2060 4255 c0 -8 5 -15 10 -15 6 0 10 7 10 15 0 8 -4 15 -10 15 -5 0
-10 -7 -10 -15z"/>
<path d="M3067 4263 c-9 -19 0 -38 18 -40 11 -2 14 0 8 3 -16 7 -17 25 -2 22
6 -2 14 3 16 10 5 13 -33 18 -40 5z"/>
<path d="M829 4258 c-6 -14 -6 -58 1 -58 9 0 20 25 20 46 0 11 -17 21 -21 12z"/>
<path d="M4635 4185 c-4 -41 -4 -87 -1 -102 3 -16 8 -44 12 -63 3 -19 7 -42 9
-50 2 -8 4 -31 5 -50 0 -26 3 -31 10 -19 5 9 5 32 -1 58 -5 23 -9 48 -8 54 1
7 -1 20 -5 29 -5 10 -6 63 -4 118 1 55 0 100 -3 100 -4 0 -10 -34 -14 -75z"/>
<path d="M2085 4238 c-8 -21 13 -61 28 -55 15 5 10 37 -8 56 -12 13 -15 12
-20 -1z"/>
<path d="M3117 4226 c-4 -10 -1 -13 9 -9 15 6 19 23 5 23 -5 0 -11 -7 -14 -14z"/>
<path d="M2961 4204 c0 -11 3 -14 6 -6 3 7 2 16 -1 19 -3 4 -6 -2 -5 -13z"/>
<path d="M6636 4213 c-25 -25 15 -50 45 -29 19 13 19 14 -10 24 -16 6 -32 8
-35 5z"/>
<path d="M7200 4214 c0 -7 6 -26 14 -44 l13 -32 7 33 c3 18 4 34 1 37 -3 3 -5
-3 -5 -14 -1 -16 -3 -15 -15 6 -8 14 -14 20 -15 14z"/>
<path d="M5176 4194 c-8 -21 37 -64 69 -64 29 0 85 26 85 40 0 5 -7 16 -16 24
-22 22 -129 22 -138 0z"/>
<path d="M6761 4174 c0 -11 3 -14 6 -6 3 7 2 16 -1 19 -3 4 -6 -2 -5 -13z"/>
<path d="M2716 4128 c3 -24 10 -70 15 -103 5 -33 9 -64 9 -68 0 -5 -19 -7 -42
-5 -50 3 -61 -16 -31 -56 19 -27 61 -34 81 -14 9 9 12 5 13 -17 1 -39 6 -65
14 -73 4 -4 3 21 0 54 -9 73 3 87 46 55 36 -26 74 -25 74 3 0 12 -14 26 -38
39 l-38 20 -24 -23 c-14 -13 -27 -21 -30 -19 -6 7 -35 177 -35 210 0 15 -5 31
-10 34 -7 4 -8 -8 -4 -37z"/>
<path d="M2067 4116 c-4 -9 -3 -15 1 -14 4 1 20 -5 35 -12 31 -15 62 -5 62 21
0 19 -55 25 -66 7 -8 -11 -10 -11 -18 0 -7 11 -9 11 -14 -2z"/>
<path d="M2253 4123 c-19 -4 -21 -8 -13 -24 16 -29 56 -52 80 -44 11 3 20 11
20 16 0 11 -50 60 -59 58 -3 -1 -16 -4 -28 -6z"/>
<path d="M2952 4110 c0 -14 2 -19 5 -12 2 6 2 18 0 25 -3 6 -5 1 -5 -13z"/>
<path d="M7231 4114 c0 -11 3 -14 6 -6 3 7 2 16 -1 19 -3 4 -6 -2 -5 -13z"/>
<path d="M2192 4105 c-2 -5 -3 -56 -2 -112 1 -99 -4 -115 -26 -93 -12 12 -81
17 -92 6 -4 -4 6 -19 22 -33 21 -18 38 -24 58 -21 33 5 39 -2 49 -52 l7 -35 1
43 c1 50 21 64 52 36 15 -13 22 -15 31 -6 9 9 7 16 -7 32 -21 24 -50 26 -59 5
-16 -43 -26 -5 -29 113 -1 70 -4 123 -5 117z"/>
<path d="M3742 4099 c-13 -5 -20 -14 -17 -20 5 -7 13 -5 24 5 14 13 20 13 30
3 11 -10 13 -9 9 2 -6 19 -18 22 -46 10z"/>
<path d="M3854 4099 c-10 -17 37 -59 66 -59 14 0 35 6 46 14 17 13 17 16 4 30
-18 18 -106 30 -116 15z"/>
<path d="M1986 4063 c-11 -61 -18 -68 -55 -49 -45 24 -55 12 -30 -34 26 -45
42 -54 71 -39 18 9 24 8 35 -7 7 -10 13 -12 13 -6 0 7 -10 22 -21 33 -20 20
-21 25 -9 76 6 30 10 57 7 59 -3 3 -8 -12 -11 -33z"/>
<path d="M3030 4096 c0 -2 13 -6 29 -8 17 -2 28 -1 25 4 -5 8 -54 12 -54 4z"/>
<path d="M4325 4080 c10 -11 20 -20 23 -20 3 0 -3 9 -13 20 -10 11 -20 20 -23
20 -3 0 3 -9 13 -20z"/>
<path d="M4750 4075 c-25 -13 -40 -24 -35 -25 6 0 3 -4 -5 -10 -11 -7 -9 -11
13 -19 39 -15 43 -14 67 11 19 21 28 68 13 68 -5 -1 -28 -12 -53 -25z"/>
<path d="M4222 4064 c-11 -26 -11 -27 3 -10 13 17 15 18 21 2 3 -9 4 -28 2
-41 -3 -14 -1 -25 3 -25 5 0 9 11 9 24 0 13 3 31 6 40 4 10 1 16 -9 16 -8 0
-17 5 -19 11 -2 6 -9 -2 -16 -17z"/>
<path d="M4161 4054 c-17 -14 -31 -31 -31 -38 0 -24 44 -10 62 20 32 52 18 59
-31 18z"/>
<path d="M2951 4063 c-1 -6 -16 -11 -33 -11 -80 1 -84 0 -66 -19 9 -9 34 -17
54 -18 29 -2 40 -8 47 -26 14 -35 20 -3 8 46 -5 22 -9 35 -10 28z"/>
<path d="M7286 4030 c9 -73 14 -91 24 -85 18 11 11 81 -10 106 l-20 24 6 -45z"/>
<path d="M3642 4038 c-1 -18 -8 -28 -17 -28 -22 0 -18 -19 11 -57 20 -26 32
-33 60 -33 36 0 37 2 28 38 -4 14 -14 22 -28 22 -33 0 -44 12 -49 50 -3 29 -4
30 -5 8z"/>
<path d="M6752 4030 c0 -14 2 -19 5 -12 2 6 2 18 0 25 -3 6 -5 1 -5 -13z"/>
<path d="M3010 4020 c0 -10 12 -28 26 -39 27 -22 74 -29 74 -11 0 15 -40 48
-71 59 -25 9 -29 8 -29 -9z"/>
<path d="M5545 4020 c-24 -6 -26 -8 -7 -9 25 -1 29 -16 6 -25 -9 -3 -12 -11
-8 -18 5 -9 2 -8 -9 1 -25 20 -31 8 -7 -14 17 -16 24 -16 66 -4 50 15 65 33
43 54 -20 18 -49 24 -84 15z"/>
<path d="M5186 3995 c-14 -14 -23 -31 -20 -39 3 -9 -6 -17 -24 -24 -25 -9 -31
-17 -37 -54 -12 -78 -47 -208 -56 -208 -4 0 -12 6 -16 13 -10 16 -63 39 -63
27 0 -5 5 -12 11 -15 6 -5 3 -13 -10 -22 -12 -8 -21 -18 -21 -22 0 -11 49 -11
56 0 3 5 14 9 26 9 18 0 20 -4 15 -42 -3 -24 -3 -36 0 -28 3 8 11 26 16 40 6
14 11 34 12 45 1 11 12 66 23 122 12 56 22 104 22 107 0 3 10 6 23 6 35 0 59
23 73 69 14 47 5 52 -30 16z"/>
<path d="M3740 3988 c1 -15 24 -48 34 -48 3 0 6 14 6 30 0 23 -4 30 -20 30
-11 0 -20 -6 -20 -12z"/>
<path d="M7273 3915 c0 -22 2 -30 4 -17 2 12 2 30 0 40 -3 9 -5 -1 -4 -23z"/>
<path d="M6751 3915 c0 -17 -6 -36 -13 -43 -7 -7 -8 -12 -2 -12 6 0 15 5 22
12 9 9 16 7 32 -7 17 -16 20 -16 26 -2 6 15 41 33 57 29 4 -1 7 2 7 8 0 18
-69 23 -94 6 -24 -15 -25 -15 -29 12 -4 26 -4 26 -6 -3z"/>
<path d="M1966 3922 c-3 -6 -26 -150 -26 -167 0 -2 -12 -3 -26 -2 -37 3 -50
-22 -33 -59 18 -36 63 -54 84 -33 13 13 13 19 -3 50 -12 24 -16 45 -11 69 12
59 26 150 23 150 -2 0 -5 -3 -8 -8z"/>
<path d="M4247 3903 c-4 -3 -7 -26 -7 -49 0 -41 -2 -44 -37 -53 -21 -6 -62
-11 -90 -11 -62 0 -69 -15 -15 -29 52 -15 65 -14 90 9 37 35 42 26 42 -87 0
-58 2 -104 4 -102 2 2 6 70 10 150 3 81 9 154 12 163 6 17 2 21 -9 9z"/>
<path d="M3850 3886 c0 -32 67 -53 92 -28 12 12 -7 22 -64 36 -21 5 -28 3 -28
-8z"/>
<path d="M4674 3710 c0 -92 2 -119 3 -62 3 77 7 101 16 95 9 -5 9 -4 0 8 -6 8
-13 39 -16 69 -2 30 -3 -19 -3 -110z"/>
<path d="M7281 3823 c-1 -39 -5 -53 -15 -53 -34 0 -29 -15 25 -78 6 -7 18 -11
27 -7 8 3 19 0 24 -7 5 -9 8 -7 8 6 0 11 -12 33 -27 49 -21 21 -29 42 -34 85
l-6 57 -2 -52z"/>
<path d="M3640 3833 c-10 -12 -11 -18 -2 -21 14 -4 17 -142 4 -142 -5 0 -17 9
-26 19 -19 21 -71 43 -80 34 -15 -15 70 -112 99 -113 14 0 21 -7 23 -23 2 -25
30 -108 31 -91 1 6 -5 32 -13 57 -12 40 -12 46 2 52 8 3 25 -1 38 -10 13 -8
34 -15 48 -15 24 0 24 -2 22 -67 l-2 -68 -35 3 c-18 2 -40 11 -47 20 -12 15
-13 13 -7 -16 7 -32 6 -32 -27 -28 -35 5 -52 -1 -55 -20 -1 -7 9 -9 25 -7 24
4 25 3 11 -9 -13 -10 -14 -17 -5 -33 15 -28 27 -35 58 -35 24 0 29 -6 43 -52
8 -28 15 -71 15 -95 0 -38 -3 -44 -17 -39 -33 10 -124 9 -134 -1 -24 -24 37
-73 89 -73 13 0 32 5 44 11 11 6 21 9 23 7 2 -2 5 -25 8 -51 7 -68 17 -71 17
-4 0 31 5 59 10 62 6 4 4 12 -5 21 -8 9 -15 26 -15 39 0 12 -7 57 -16 99 -8
42 -14 81 -12 86 6 18 30 -8 38 -41 7 -28 8 -21 9 37 1 82 17 100 56 64 27
-26 51 -26 65 1 17 31 -4 49 -56 49 -27 0 -43 -4 -42 -11 2 -6 -2 -13 -9 -16
-13 -5 -23 176 -10 184 5 3 13 16 18 30 13 34 -4 53 -48 53 -27 0 -43 -8 -70
-35 -19 -19 -37 -35 -39 -35 -6 0 -5 134 2 169 6 29 10 31 48 31 22 0 48 5 56
10 10 6 -2 7 -38 3 -41 -5 -55 -3 -65 10 -11 14 -13 14 -27 0z"/>
<path d="M5580 3833 c-56 -24 -67 -56 -24 -67 38 -10 114 42 114 78 0 11 -55
4 -90 -11z"/>
<path d="M3802 3810 c0 -14 2 -19 5 -12 2 6 2 18 0 25 -3 6 -5 1 -5 -13z"/>
<path d="M3051 3804 c13 -16 29 -19 29 -5 0 5 -9 11 -21 14 -16 4 -18 3 -8 -9z"/>
<path d="M4155 3810 c4 -6 11 -8 16 -5 14 9 11 15 -7 15 -8 0 -12 -5 -9 -10z"/>
<path d="M4280 3781 c14 -11 35 -21 48 -21 28 0 21 16 -10 23 -13 2 -32 8 -43
12 -16 5 -15 3 5 -14z"/>
<path d="M2762 3718 l-2 -58 -27 11 c-19 7 -29 7 -31 0 -2 -6 -8 -11 -13 -11
-6 0 -7 5 -3 11 4 8 -1 9 -17 4 -35 -11 -42 -21 -30 -44 15 -27 48 -44 84 -43
l29 1 -6 -60 c-3 -32 -9 -85 -12 -118 l-6 -59 -54 3 c-62 4 -76 -8 -45 -38 14
-15 34 -22 61 -22 47 0 47 3 19 -116 -11 -49 -19 -94 -17 -101 5 -13 48 186
48 220 0 12 3 22 8 22 4 0 7 63 7 141 0 124 2 142 18 157 20 18 19 19 54 -35
11 -17 12 -17 12 5 1 27 -35 66 -54 58 -11 -4 -15 10 -18 62 l-3 67 -2 -57z"/>
<path d="M3791 3745 c0 -17 -6 -36 -12 -42 -7 -7 -2 -12 20 -15 33 -5 44 14
17 29 -8 4 -16 19 -19 33 -4 22 -4 22 -6 -5z"/>
<path d="M6170 3743 c0 -10 52 -63 62 -63 15 0 8 37 -10 53 -19 17 -52 23 -52
10z"/>
<path d="M5183 3693 c-13 -2 -23 -9 -23 -15 0 -6 -11 -8 -26 -5 -30 5 -43 -15
-24 -38 21 -25 76 -18 111 13 46 41 31 58 -38 45z"/>
<path d="M2211 3674 c0 -11 3 -14 6 -6 3 7 2 16 -1 19 -3 4 -6 -2 -5 -13z"/>
<path d="M7303 3610 c0 -36 2 -50 4 -32 2 17 2 47 0 65 -2 17 -4 3 -4 -33z"/>
<path d="M2176 3641 c-27 -5 -50 -31 -28 -31 5 0 19 -9 32 -20 22 -19 25 -19
48 -4 20 13 26 14 33 3 5 -8 9 -17 9 -21 0 -5 5 -8 10 -8 20 0 10 32 -19 61
-30 30 -35 31 -85 20z"/>
<path d="M1916 3608 c-10 -63 -14 -163 -7 -138 10 32 24 170 17 170 -3 0 -7
-15 -10 -32z"/>
<path d="M5609 3625 c-1 -3 -2 -8 -3 -12 -4 -21 -20 -34 -37 -30 -10 3 -22 0
-26 -5 -3 -6 -2 -8 3 -5 14 8 38 -9 30 -21 -4 -6 -14 -8 -24 -5 -12 4 -14 3
-7 -5 6 -6 22 -13 36 -17 44 -11 114 78 79 100 -6 4 -18 1 -27 -7 -12 -9 -15
-9 -9 0 4 6 2 12 -3 12 -6 0 -12 -2 -12 -5z"/>
<path d="M6094 3583 c-5 -27 -8 -50 -9 -53 0 -3 -5 -13 -11 -24 -8 -12 -14
-15 -18 -7 -10 16 -36 14 -36 -3 0 -8 8 -13 18 -12 14 1 17 -6 15 -39 l-2 -40
10 33 c10 34 18 39 37 20 9 -9 12 -8 12 6 0 10 9 30 21 44 12 16 16 28 10 30
-6 2 -8 9 -5 15 5 8 2 8 -7 0 -24 -23 -30 -14 -23 32 3 25 4 45 1 45 -3 0 -9
-21 -13 -47z"/>
<path d="M4221 3549 c-1 -29 -22 -52 -43 -48 -21 5 -120 -11 -141 -23 -18 -9
-17 -11 13 -26 25 -12 36 -13 51 -4 12 8 19 8 19 2 0 -16 14 -12 37 10 40 37
46 30 45 -50 l0 -75 9 74 c5 41 11 76 14 79 3 3 16 0 29 -7 13 -8 34 -10 47
-6 36 10 89 39 89 48 0 5 -35 7 -77 5 -74 -3 -77 -2 -84 22 l-7 25 -1 -26z"/>
<path d="M5026 3544 c-4 -14 -5 -28 -3 -31 3 -2 8 8 11 23 4 14 5 28 3 31 -3
2 -8 -8 -11 -23z"/>
<path d="M2211 3544 c0 -11 3 -14 6 -6 3 7 2 16 -1 19 -3 4 -6 -2 -5 -13z"/>
<path d="M7324 3528 c3 -13 6 -38 6 -55 0 -23 5 -33 15 -33 18 0 21 60 5 91
-15 27 -34 24 -26 -3z"/>
<path d="M4661 3527 c-1 -14 -5 -16 -19 -8 -26 14 -66 3 -52 -14 8 -10 8 -15
-1 -20 -6 -4 -15 -1 -20 6 -7 11 -9 11 -9 -2 0 -20 57 -34 76 -19 12 11 22 -9
37 -75 3 -11 5 -4 5 15 -1 19 1 40 2 45 2 6 0 17 -3 25 -3 8 -8 26 -10 40 -2
14 -5 17 -6 7z"/>
<path d="M2202 3449 c-2 -59 -5 -76 -17 -77 -8 -1 -26 -2 -40 -3 -32 -2 -32
-16 1 -46 32 -29 60 -23 65 15 2 15 1 63 -2 107 l-5 80 -2 -76z"/>
<path d="M4763 3488 c-39 -8 -41 -11 -30 -29 6 -10 14 -19 17 -20 3 0 13 -2
24 -4 26 -5 66 12 66 27 0 24 -33 35 -77 26z"/>
<path d="M5012 3480 c0 -14 2 -19 5 -12 2 6 2 18 0 25 -3 6 -5 1 -5 -13z"/>
<path d="M5076 3465 c-11 -9 -16 -20 -12 -30 4 -12 0 -19 -14 -22 -11 -3 -20
-9 -20 -14 0 -5 -7 -9 -15 -9 -8 0 -15 -5 -15 -11 0 -6 7 -8 16 -5 9 3 27 6
40 6 17 0 30 10 44 33 34 56 21 86 -24 52z"/>
<path d="M4900 3430 c-6 -11 -14 -18 -18 -16 -5 3 -14 0 -22 -6 -12 -8 -12 -9
3 -4 10 3 17 0 17 -8 0 -8 9 -16 20 -19 12 -3 20 0 20 8 0 8 8 11 20 8 16 -4
19 -2 14 13 -17 46 -37 55 -54 24z"/>
<path d="M1825 3431 c-7 -13 38 -61 58 -61 9 0 18 -8 20 -17 3 -12 5 -9 6 8 0
14 7 34 15 44 13 18 14 17 31 -8 19 -30 36 -28 28 3 -8 31 -141 57 -158 31z"/>
<path d="M2259 3391 c-21 -8 -9 -45 20 -60 16 -9 25 -6 48 13 22 20 26 27 16
37 -14 14 -59 20 -84 10z"/>
<path d="M6040 3320 c-3 -41 -2 -93 1 -115 l5 -40 5 35 c3 30 8 35 38 41 18 4
40 14 49 23 15 15 15 16 -3 17 -11 1 -32 0 -47 -1 -29 -2 -34 9 -41 80 -1 19
-5 1 -7 -40z"/>
<path d="M4970 3359 c-6 -11 -10 -25 -8 -30 2 -5 8 4 15 21 13 34 9 40 -7 9z"/>
<path d="M7312 3350 c0 -19 2 -27 5 -17 2 9 2 25 0 35 -3 9 -5 1 -5 -18z"/>
<path d="M2777 3343 c-4 -3 3 -17 15 -30 26 -28 69 -30 92 -4 17 19 17 20 -3
30 -22 12 -94 15 -104 4z"/>
<path d="M5660 3331 c13 -9 13 -11 -1 -11 -9 0 -27 -8 -40 -19 -22 -17 -24
-17 -36 -2 -11 15 -12 15 -13 -2 0 -19 36 -37 74 -37 23 0 61 39 61 63 0 6
-13 13 -30 15 -23 2 -27 0 -15 -7z"/>
<path d="M1892 3305 c0 -16 2 -22 5 -12 2 9 2 23 0 30 -3 6 -5 -1 -5 -18z"/>
<path d="M4662 3284 c-2 -47 -26 -78 -35 -44 -3 11 -12 20 -21 20 -23 0 -20
-15 7 -33 36 -24 59 -1 54 55 l-4 43 -1 -41z"/>
<path d="M4192 3274 c-1 -23 -4 -63 -7 -90 -2 -27 -2 -40 1 -29 4 11 9 22 13
25 3 3 3 34 0 70 -4 48 -6 54 -7 24z"/>
<path d="M4940 3253 c-6 -32 -14 -71 -17 -88 -3 -16 -8 -34 -12 -40 -4 -5 -5
-23 -1 -40 l6 -30 8 35 c5 19 8 38 7 42 0 4 6 44 14 90 16 94 13 120 -5 31z"/>
<path d="M7306 3294 c-8 -21 12 -94 25 -94 6 0 7 -5 3 -12 -4 -7 -3 -8 4 -4
16 10 15 58 -2 81 -8 11 -12 25 -9 32 3 7 1 13 -5 13 -5 0 -13 -7 -16 -16z"/>
<path d="M1877 3241 c-4 -18 -7 -43 -6 -55 1 -11 5 -1 10 24 5 25 7 49 6 55
-2 5 -7 -5 -10 -24z"/>
<path d="M5978 3258 c-30 -10 -34 -24 -17 -48 9 -12 11 -13 16 -1 3 7 14 22
24 32 23 23 13 29 -23 17z"/>
<path d="M4774 3251 c3 -5 -5 -12 -18 -15 -13 -3 -26 -13 -30 -21 -7 -19 27
-37 57 -30 24 6 61 57 50 69 -10 10 -65 7 -59 -3z"/>
<path d="M7390 3224 c-27 -12 -32 -17 -20 -24 38 -24 114 0 95 30 -9 14 -33
12 -75 -6z"/>
<path d="M4116 3195 c-10 -8 -37 -17 -59 -21 -33 -5 -38 -8 -22 -14 11 -4 36
-1 57 6 20 7 38 10 41 8 2 -2 9 2 16 10 16 19 -9 28 -33 11z"/>
<path d="M4841 3181 c-9 -6 -10 -11 -2 -15 16 -10 14 -36 -3 -36 -20 0 -28
-27 -10 -34 22 -9 74 22 74 43 0 10 -8 25 -18 34 -21 19 -22 20 -41 8z"/>
<path d="M4651 3154 c0 -11 3 -14 6 -6 3 7 2 16 -1 19 -3 4 -6 -2 -5 -13z"/>
<path d="M3836 3147 c-35 -11 -38 -14 -25 -27 8 -8 18 -23 22 -32 3 -10 18
-20 33 -24 22 -6 32 -2 51 20 27 32 28 39 7 60 -18 19 -34 19 -88 3z"/>
<path d="M1846 3133 c-6 -16 23 -53 42 -53 14 0 21 35 10 54 -12 21 -44 21
-52 -1z"/>
<path d="M2146 3135 c-36 -27 24 -76 66 -54 22 12 23 23 3 42 -8 8 -12 16 -10
18 10 11 -44 5 -59 -6z"/>
<path d="M5000 3140 c-6 -4 8 -10 32 -13 24 -4 54 -10 68 -13 24 -6 24 -6 8
11 -17 18 -87 28 -108 15z"/>
<path d="M2240 3107 c0 -23 30 -56 45 -51 18 7 20 35 3 52 -16 16 -48 15 -48
-1z"/>
<path d="M4642 3080 c-1 -25 -5 -56 -7 -70 l-6 -25 11 25 c6 13 9 45 7 70 l-3
45 -2 -45z"/>
<path d="M5682 3106 c-8 -6 -32 -28 -53 -49 -31 -29 -37 -39 -24 -43 43 -17
100 31 93 79 -2 19 -6 22 -16 13z"/>
<path d="M4980 3081 c10 -20 40 -30 40 -13 0 4 12 7 28 7 52 0 32 20 -24 23
-53 3 -55 2 -44 -17z"/>
<path d="M6056 3063 c1 -18 -3 -34 -9 -36 -8 -3 -5 -10 8 -20 18 -14 21 -13
41 6 17 16 20 25 12 34 -14 17 -31 17 -22 1 6 -10 3 -9 -8 0 -9 8 -19 21 -21
30 -3 9 -3 3 -1 -15z"/>
<path d="M2212 2973 c-2 -96 -7 -115 -26 -96 -10 10 -76 11 -76 2 0 -17 33
-39 57 -39 14 0 31 -7 38 -17 18 -25 20 -8 15 127 l-6 125 -2 -102z"/>
<path d="M2633 3055 c-4 -12 1 -24 16 -37 26 -20 61 -24 61 -6 0 6 13 -1 29
-16 26 -25 30 -26 45 -11 33 33 8 64 -58 70 -17 2 -43 7 -58 10 -21 6 -29 3
-35 -10z"/>
<path d="M5420 3054 c0 -8 4 -12 10 -9 6 4 9 -3 7 -16 -3 -33 41 -47 89 -30
19 7 38 10 41 7 8 -8 43 -157 43 -185 0 -23 -1 -24 -20 -6 -11 10 -40 19 -65
21 -39 4 -45 2 -45 -15 0 -11 12 -33 26 -50 27 -33 67 -41 104 -21 17 9 21 4
39 -52 19 -59 20 -60 14 -18 -3 25 -13 70 -23 100 -10 30 -25 91 -34 135 -17
79 -35 129 -44 121 -2 -3 -13 4 -25 15 -27 25 -117 28 -117 3z"/>
<path d="M1866 3013 c12 -85 27 -146 49 -201 12 -31 31 -95 40 -142 10 -47 21
-89 26 -94 13 -15 -38 208 -60 260 -25 60 -40 126 -41 177 0 20 -4 37 -9 37
-6 0 -7 -17 -5 -37z"/>
<path d="M3802 3030 c0 -14 2 -19 5 -12 2 6 2 18 0 25 -3 6 -5 1 -5 -13z"/>
<path d="M4885 2965 c-3 -26 -4 -49 -2 -51 3 -3 8 16 12 41 3 26 4 49 2 51 -3
3 -8 -16 -12 -41z"/>
<path d="M4700 2988 l-25 -10 35 -29 c40 -34 50 -35 81 -10 20 16 22 21 10 35
-8 9 -16 15 -18 12 -3 -2 -17 -1 -31 4 -15 4 -38 3 -52 -2z"/>
<path d="M3813 2978 c-5 -7 -9 -43 -9 -80 1 -38 -2 -68 -6 -68 -14 0 -19 -46
-8 -74 9 -25 21 -93 36 -211 2 -21 7 -42 11 -45 8 -7 -6 112 -23 199 -9 40
-13 79 -10 87 9 24 35 15 43 -13 l7 -28 6 35 c3 19 1 38 -4 42 -6 4 -4 13 4
23 12 14 14 13 24 -7 7 -13 22 -24 37 -26 21 -2 29 3 39 27 7 17 13 31 14 31
1 0 17 -4 36 -10 43 -12 88 -5 119 21 31 26 20 35 -26 21 -21 -6 -59 -13 -85
-16 -38 -5 -48 -3 -48 9 0 17 -13 19 -57 6 -29 -9 -31 -7 -37 22 -6 30 -32 67
-46 67 -4 0 -12 -6 -17 -12z"/>
<path d="M4630 2958 c0 -19 2 -20 10 -8 13 19 13 30 0 30 -5 0 -10 -10 -10
-22z"/>
<path d="M2675 2903 c-12 -135 -15 -143 -35 -131 -12 8 -33 8 -71 1 -45 -8
-50 -11 -34 -19 11 -5 20 -16 20 -24 0 -21 51 -25 81 -5 l25 16 -3 -108 c-2
-87 -6 -108 -18 -109 -8 -1 -33 -2 -55 -3 -49 -2 -68 -12 -60 -33 9 -23 60
-41 99 -35 32 5 34 4 40 -31 3 -20 8 -69 12 -107 l6 -70 -58 1 c-72 2 -126 -5
-119 -17 3 -4 21 -6 40 -4 40 6 48 -10 10 -19 -26 -7 -34 -25 -12 -27 6 -1 23
-3 37 -4 14 -2 40 5 58 16 18 10 35 19 38 19 2 0 4 -56 4 -125 0 -125 0 -125
-24 -125 -33 0 -92 -26 -99 -44 -14 -36 70 -60 109 -31 10 8 22 15 25 15 18 1
39 -216 23 -233 -3 -3 -14 -1 -25 6 -14 9 -22 8 -37 -6 -21 -19 -42 -22 -42
-6 0 6 -7 3 -16 -6 -18 -18 -18 -18 11 -33 15 -7 29 -6 55 4 48 21 55 8 70
-128 7 -62 14 -118 17 -125 4 -9 -8 -12 -47 -9 -91 6 -121 -18 -60 -49 36 -19
70 -19 96 -1 18 14 20 11 36 -47 l18 -62 -7 50 c-9 73 -10 79 -16 95 -16 40
-29 152 -37 320 -5 102 -14 201 -20 220 -6 19 -12 121 -14 225 -2 105 -8 226
-14 270 -6 44 -11 89 -11 100 -2 69 1 181 10 319 9 161 6 225 -6 99z"/>
<path d="M4240 2953 c-14 -9 -28 -22 -32 -27 -5 -7 -8 -3 -8 8 0 23 -13 13
-16 -12 -1 -9 -5 -39 -8 -67 -7 -56 -1 -51 9 8 3 21 11 37 18 36 29 -3 47 2
47 14 0 8 11 19 25 25 14 6 25 16 25 22 0 16 -33 12 -60 -7z"/>
<path d="M4623 2875 c0 -33 2 -45 4 -27 2 18 2 45 0 60 -2 15 -4 0 -4 -33z"/>
<path d="M4871 2884 c0 -11 3 -14 6 -6 3 7 2 16 -1 19 -3 4 -6 -2 -5 -13z"/>
<path d="M3741 2854 c11 -14 11 -18 -4 -29 -56 -41 -67 -51 -67 -62 0 -19 31
-3 65 33 24 25 29 38 23 53 -4 12 -13 21 -19 21 -8 0 -7 -5 2 -16z"/>
<path d="M4940 2845 l25 -14 -37 -1 c-37 0 -37 0 -27 -30 10 -27 15 -30 54
-30 47 0 59 13 42 45 -14 27 -38 44 -62 44 -18 0 -17 -1 5 -14z"/>
<path d="M2260 2845 c0 -4 7 -19 15 -35 12 -23 22 -30 45 -30 41 0 39 25 -2
50 -32 19 -58 26 -58 15z"/>
<path d="M5748 2843 c-9 -2 -19 -10 -22 -18 -3 -9 0 -12 10 -8 7 3 14 1 14 -5
0 -5 -9 -12 -21 -15 -12 -3 -18 -10 -15 -15 3 -5 -4 -12 -16 -16 -17 -4 -20
-8 -11 -17 6 -6 19 -8 29 -5 21 7 64 68 64 91 0 15 -3 16 -32 8z"/>
<path d="M4846 2802 c-3 -5 -8 -29 -11 -53 l-5 -44 15 50 c13 46 14 68 1 47z"/>
<path d="M4162 2770 c0 -14 2 -19 5 -12 2 6 2 18 0 25 -3 6 -5 1 -5 -13z"/>
<path d="M4680 2780 c-13 -9 -13 -11 0 -21 12 -8 12 -12 2 -16 -21 -8 6 -33
37 -33 34 0 68 37 54 59 -12 19 -71 26 -93 11z"/>
<path d="M4565 2745 c-18 -15 -19 -16 -1 -11 12 4 25 -1 37 -15 11 -12 19 -16
19 -9 0 6 7 10 14 7 10 -4 13 -1 10 8 -3 8 -12 11 -20 8 -8 -3 -14 0 -14 7 0
6 -4 9 -9 6 -5 -4 -11 -1 -13 4 -2 6 -11 4 -23 -5z"/>
<path d="M3862 2720 c0 -14 2 -19 5 -12 2 6 2 18 0 25 -3 6 -5 1 -5 -13z"/>
<path d="M4152 2690 c0 -14 2 -19 5 -12 2 6 2 18 0 25 -3 6 -5 1 -5 -13z"/>
<path d="M4820 2645 c-4 -52 -8 -60 -24 -58 -11 1 -28 -9 -38 -23 -11 -13 -22
-23 -26 -23 -25 4 -35 -2 -24 -13 14 -14 62 8 62 29 0 22 30 15 39 -9 8 -21 9
-20 15 12 4 19 6 60 4 90 l-4 55 -4 -60z"/>
<path d="M3871 2674 c0 -11 3 -14 6 -6 3 7 2 16 -1 19 -3 4 -6 -2 -5 -13z"/>
<path d="M4050 2670 c-21 -16 -23 -21 -11 -32 12 -11 13 -11 6 1 -6 11 -2 13
18 9 16 -3 31 0 38 8 6 8 15 11 20 8 5 -3 9 0 9 5 0 6 -6 11 -14 11 -8 0 -20
2 -28 5 -7 2 -24 -4 -38 -15z"/>
<path d="M3985 2660 c3 -5 14 -10 23 -10 15 0 15 2 2 10 -20 13 -33 13 -25 0z"/>
<path d="M4623 2605 c0 -38 2 -53 4 -32 2 20 2 52 0 70 -2 17 -4 1 -4 -38z"/>
<path d="M4260 2630 c0 -5 5 -10 11 -10 5 0 7 5 4 10 -3 6 -8 10 -11 10 -2 0
-4 -4 -4 -10z"/>
<path d="M2177 2602 c-10 -14 33 -54 58 -54 14 0 25 -6 26 -12 0 -6 4 -1 9 12
11 27 22 28 45 2 23 -25 57 -26 79 -1 29 32 11 44 -58 38 -44 -4 -66 -2 -80 9
-21 15 -72 19 -79 6z"/>
<path d="M5773 2595 c-7 -8 -13 -19 -13 -26 0 -6 -6 -9 -12 -6 -7 2 -20 -10
-29 -27 -16 -31 -16 -32 4 -33 30 -3 52 13 70 48 22 46 8 76 -20 44z"/>
<path d="M3880 2586 c-13 -13 -12 -37 3 -58 10 -12 28 -16 70 -16 52 1 58 3
63 24 7 27 -2 58 -13 51 -5 -3 -32 -1 -60 2 -32 5 -57 3 -63 -3z"/>
<path d="M4865 2571 c-3 -5 3 -12 12 -14 17 -4 17 -5 1 -6 -28 -2 -21 -17 13
-34 24 -11 39 -12 60 -5 40 14 46 28 19 50 -23 19 -94 25 -105 9z"/>
<path d="M1951 2539 c-9 -16 -9 -24 0 -35 17 -21 57 -17 69 6 9 17 7 22 -16
30 -15 6 -30 12 -33 15 -4 2 -13 -5 -20 -16z"/>
<path d="M2696 2505 c-2 -7 10 -27 28 -44 29 -28 34 -30 40 -15 4 9 0 27 -8
39 -17 26 -53 38 -60 20z"/>
<path d="M4631 2511 c0 -7 -7 -11 -16 -7 -9 3 -19 -3 -25 -15 -6 -11 -15 -17
-19 -15 -4 3 -17 -1 -27 -9 -18 -13 -18 -14 8 -20 14 -4 36 -1 48 5 12 6 23
10 24 8 2 -2 8 -12 14 -23 11 -19 11 -19 11 5 -2 30 -16 90 -18 71z"/>
<path d="M5611 2506 c-7 -8 -10 -20 -6 -26 3 -5 2 -10 -4 -10 -5 0 -11 6 -14
13 -3 8 -9 6 -19 -7 -10 -13 -22 -17 -37 -13 -11 3 -21 1 -21 -4 0 -9 1 -10
35 -14 11 -2 27 -6 36 -9 18 -8 73 48 66 67 -5 17 -23 19 -36 3z"/>
<path d="M2031 2503 c0 -5 4 -17 9 -28 8 -18 9 -17 9 8 1 15 -3 27 -9 27 -5 0
-10 -3 -9 -7z"/>
<path d="M2271 2494 c0 -11 3 -14 6 -6 3 7 2 16 -1 19 -3 4 -6 -2 -5 -13z"/>
<path d="M3920 2491 c0 -6 4 -13 10 -16 6 -3 7 1 4 9 -7 18 -14 21 -14 7z"/>
<path d="M4802 2480 c0 -14 2 -19 5 -12 2 6 2 18 0 25 -3 6 -5 1 -5 -13z"/>
<path d="M5682 2480 c0 -14 2 -19 5 -12 2 6 2 18 0 25 -3 6 -5 1 -5 -13z"/>
<path d="M3822 2450 c0 -19 2 -27 5 -17 2 9 2 25 0 35 -3 9 -5 1 -5 -18z"/>
<path d="M2000 2451 c0 -34 49 -174 67 -191 13 -13 13 -11 -1 17 -8 17 -25 66
-37 110 -23 85 -29 98 -29 64z"/>
<path d="M3946 2440 c3 -14 11 -32 16 -40 6 -10 7 -7 2 10 -3 14 -11 32 -16
40 -6 10 -7 7 -2 -10z"/>
<path d="M5684 2405 c0 -27 -3 -93 -8 -145 -11 -128 0 -111 14 21 8 69 8 117
2 140 -9 33 -10 32 -8 -16z"/>
<path d="M4090 2411 c0 -16 4 -21 15 -18 8 4 17 2 20 -4 12 -18 60 -36 79 -30
15 6 7 12 -40 31 -32 13 -62 29 -66 34 -4 6 -8 0 -8 -13z"/>
<path d="M2281 2387 l-1 -38 -37 30 c-34 28 -71 42 -61 24 3 -5 10 -23 17 -41
9 -21 22 -34 39 -38 41 -10 52 -23 53 -63 2 -25 3 -28 6 -11 2 14 -1 59 -6
100 -5 46 -9 60 -10 37z"/>
<path d="M3971 2375 c0 -5 6 -36 13 -67 l14 -58 -26 7 c-37 9 -45 8 -81 -7
-24 -9 -31 -18 -29 -34 2 -16 14 -23 48 -29 41 -8 46 -7 66 17 l22 25 36 -112
c20 -62 41 -119 47 -127 9 -13 10 -13 5 0 -40 117 -67 216 -64 234 3 12 -1 28
-9 34 -7 7 -13 23 -14 35 -1 22 -27 100 -28 82z"/>
<path d="M2373 2343 c-35 -5 -40 -12 -21 -31 18 -18 73 -14 91 6 30 33 20 36
-70 25z"/>
<path d="M3842 2310 c-15 -24 -16 -40 -1 -40 5 0 7 5 3 11 -3 6 -1 15 6 19 7
4 11 13 9 19 -2 6 -10 2 -17 -9z"/>
<path d="M4106 2295 c4 -8 8 -15 10 -15 2 0 4 7 4 15 0 8 -4 15 -10 15 -5 0
-7 -7 -4 -15z"/>
<path d="M5595 2290 c-3 -5 -4 -14 -1 -19 4 -5 3 -16 0 -25 -5 -12 -11 -13
-24 -6 -13 7 -21 6 -26 -2 -4 -7 -3 -8 4 -4 7 4 12 2 12 -3 0 -17 36 -13 69 7
29 17 30 20 15 40 -16 23 -39 29 -49 12z"/>
<path d="M5796 2281 c-7 -11 12 -27 39 -34 11 -2 1 -5 -23 -6 -48 -1 -86 -26
-62 -41 20 -12 72 -1 94 20 24 24 14 50 -19 50 -15 0 -24 4 -20 10 3 6 4 10 1
10 -3 0 -7 -4 -10 -9z"/>
<path d="M2121 2258 c12 -22 26 -31 33 -19 10 16 -5 40 -24 38 -14 -1 -16 -5
-9 -19z"/>
<path d="M2724 2237 c-15 -41 51 -102 94 -86 43 16 20 54 -51 84 -31 13 -38
13 -43 2z"/>
<path d="M1996 2209 c-61 -32 -63 -42 -9 -52 27 -5 39 -1 68 24 25 22 35 27
35 16 0 -20 61 -189 66 -184 2 2 -12 50 -31 107 -19 56 -32 107 -29 111 11 19
-44 7 -100 -22z"/>
<path d="M2282 2150 c0 -14 2 -19 5 -12 2 6 2 18 0 25 -3 6 -5 1 -5 -13z"/>
<path d="M5646 2079 c-9 -40 -14 -74 -12 -76 2 -3 11 28 20 68 9 39 15 73 13
76 -3 2 -12 -28 -21 -68z"/>
<path d="M2180 2121 c0 -12 46 -48 71 -56 10 -4 19 -14 19 -23 0 -14 2 -15 10
-2 5 8 11 12 13 10 2 -3 14 -20 26 -37 18 -26 29 -33 56 -33 38 0 46 13 33 51
-13 37 -51 56 -83 41 -40 -18 -53 -15 -48 11 4 17 -2 26 -22 35 -31 14 -75 16
-75 3z"/>
<path d="M5677 1999 c5 -5 25 -12 44 -14 32 -4 33 -3 15 10 -23 18 -76 21 -59
4z"/>
<path d="M4125 1990 l-20 -8 20 -7 c11 -5 28 -15 38 -23 15 -14 17 -13 17 4 0
19 -18 45 -29 43 -4 0 -15 -4 -26 -9z"/>
<path d="M2720 1962 c0 -5 11 -19 24 -32 29 -26 71 -29 93 -7 14 13 13 16 -8
28 -28 14 -109 23 -109 11z"/>
<path d="M4114 1935 c-4 -17 -1 -32 9 -43 8 -9 29 -44 45 -77 17 -33 31 -56
32 -52 0 4 -13 35 -30 69 -16 33 -30 73 -30 88 0 38 -18 48 -26 15z"/>
<path d="M5702 1944 c-6 -7 -12 -17 -12 -23 0 -13 38 -1 44 14 7 19 -16 25
-32 9z"/>
<path d="M2185 1933 c0 -10 7 -27 14 -38 11 -18 12 -17 6 10 -7 34 -22 55 -20
28z"/>
<path d="M5600 1937 c0 -8 -11 -41 -25 -75 -14 -34 -25 -67 -24 -74 0 -7 6 3
14 22 7 19 22 59 34 88 11 28 16 52 11 52 -6 0 -10 -6 -10 -13z"/>
<path d="M2222 1881 l-11 -30 -37 15 c-37 16 -84 12 -84 -7 0 -5 12 -21 27
-35 22 -20 34 -24 60 -19 l32 6 -5 -38 c-2 -21 -2 -32 2 -25 3 6 9 10 13 8 4
-3 7 16 6 42 -1 25 1 60 6 76 12 40 4 45 -9 7z"/>
<path d="M2255 1829 c10 -31 37 -59 57 -59 31 0 30 20 -4 50 -39 36 -62 40
-53 9z"/>
<path d="M5527 1735 c-9 -20 -17 -46 -17 -58 0 -21 0 -21 14 -2 11 17 30 95
22 95 -1 0 -10 -16 -19 -35z"/>
<path d="M4200 1745 c0 -5 5 -17 10 -25 5 -8 10 -10 10 -5 0 6 -5 17 -10 25
-5 8 -10 11 -10 5z"/>
<path d="M2192 1705 c0 -16 2 -22 5 -12 2 9 2 23 0 30 -3 6 -5 -1 -5 -18z"/>
<path d="M2231 1704 c0 -11 3 -14 6 -6 3 7 2 16 -1 19 -3 4 -6 -2 -5 -13z"/>
<path d="M5480 1710 c0 -5 5 -10 11 -10 5 0 7 5 4 10 -3 6 -8 10 -11 10 -2 0
-4 -4 -4 -10z"/>
<path d="M5625 1702 c-26 -5 -58 -39 -50 -52 9 -15 78 -12 100 3 29 22 -8 58
-50 49z"/>
<path d="M4161 1676 c-41 -22 -43 -24 -23 -35 29 -16 57 -14 73 5 12 14 14 14
27 -3 14 -17 14 -17 7 2 -4 11 -8 27 -9 35 -4 23 -26 21 -75 -4z"/>
<path d="M2312 1678 c-21 -6 -30 -13 -26 -21 16 -28 38 -47 55 -47 17 0 39 27
39 49 0 19 -34 28 -68 19z"/>
<path d="M2782 1672 c-31 -5 -26 -38 10 -65 22 -16 33 -18 59 -11 44 13 59 38
36 61 -16 17 -57 22 -105 15z"/>
<path d="M2181 1654 c0 -11 3 -14 6 -6 3 7 2 16 -1 19 -3 4 -6 -2 -5 -13z"/>
<path d="M2550 1660 c0 -5 5 -10 11 -10 5 0 7 5 4 10 -3 6 -8 10 -11 10 -2 0
-4 -4 -4 -10z"/>
<path d="M2241 1620 c0 -8 7 -31 15 -50 l14 -35 -6 35 c-7 40 -24 76 -23 50z"/>
<path d="M2195 1600 c3 -5 8 -10 11 -10 2 0 4 5 4 10 0 6 -5 10 -11 10 -5 0
-7 -4 -4 -10z"/>
<path d="M2166 1554 c-4 -9 -4 -19 -1 -22 2 -3 7 3 11 12 4 9 4 19 1 22 -2 3
-7 -3 -11 -12z"/>
<path d="M2141 1414 c0 -11 3 -14 6 -6 3 7 2 16 -1 19 -3 4 -6 -2 -5 -13z"/>
<path d="M2301 1404 c0 -11 3 -14 6 -6 3 7 2 16 -1 19 -3 4 -6 -2 -5 -13z"/>
<path d="M2240 1373 c-14 -3 -29 -9 -34 -14 -14 -13 -29 -11 -20 3 4 7 3 8 -5
4 -18 -12 2 -31 49 -46 36 -12 42 -11 60 5 11 10 22 16 25 13 2 -2 9 -29 14
-59 l10 -54 -2 60 c-2 44 -7 65 -21 78 -19 17 -29 18 -76 10z"/>
<path d="M2382 1371 c-13 -8 4 -33 34 -49 24 -13 34 -7 34 19 0 19 -50 41 -68
30z"/>
<path d="M2885 1370 c-3 -5 -19 -10 -35 -10 -16 0 -32 -5 -36 -12 -9 -14 23
-38 52 -38 26 0 74 36 74 56 0 16 -45 20 -55 4z"/>
<path d="M2086 1334 c-9 -8 -16 -20 -16 -25 0 -13 24 -11 38 3 14 14 16 38 3
38 -5 0 -17 -7 -25 -16z"/>
<path d="M2792 1180 c0 -14 2 -19 5 -12 2 6 2 18 0 25 -3 6 -5 1 -5 -13z"/>
<path d="M2945 1110 c-10 -11 -27 -22 -38 -26 -12 -4 -27 -12 -34 -19 -15 -15
2 -25 44 -25 27 0 83 49 83 74 0 22 -33 20 -55 -4z"/>
<path d="M2343 1070 c0 -25 2 -35 4 -22 2 12 2 32 0 45 -2 12 -4 2 -4 -23z"/>
<path d="M2436 1039 c-11 -11 -25 -19 -33 -19 -22 0 -15 -27 9 -33 25 -7 91
29 85 46 -7 21 -42 24 -61 6z"/>
<path d="M2338 970 c2 -16 6 -30 8 -30 2 0 4 14 4 30 0 17 -4 30 -8 30 -5 0
-7 -13 -4 -30z"/>
<path d="M2265 970 c-3 -5 -2 -10 4 -10 5 0 13 5 16 10 3 6 2 10 -4 10 -5 0
-13 -4 -16 -10z"/>
<path d="M2850 769 c-19 -10 -40 -19 -47 -19 -7 0 -13 -7 -13 -15 0 -11 11
-15 38 -15 31 1 40 6 59 35 25 40 15 43 -37 14z"/>
<path d="M2960 776 c0 -19 34 -46 59 -46 25 0 38 24 22 44 -15 17 -81 20 -81
2z"/>
<path d="M2913 730 c6 -22 13 -38 15 -36 6 7 -10 76 -18 76 -4 0 -2 -18 3 -40z"/>
<path d="M2340 724 c0 -8 -4 -12 -10 -9 -5 3 -10 1 -10 -4 0 -6 7 -11 15 -11
8 0 15 9 15 20 0 11 -2 20 -5 20 -3 0 -5 -7 -5 -16z"/>
<path d="M2931 664 c0 -11 3 -14 6 -6 3 7 2 16 -1 19 -3 4 -6 -2 -5 -13z"/>
<path d="M2951 554 c0 -11 3 -14 6 -6 3 7 2 16 -1 19 -3 4 -6 -2 -5 -13z"/>
<path d="M2960 510 c0 -6 -10 -8 -25 -4 -17 4 -33 -1 -52 -16 l-28 -23 30 5
c17 3 38 9 47 13 13 5 20 1 26 -16 9 -22 9 -22 14 9 3 18 1 35 -4 38 -4 3 -8
0 -8 -6z"/>
<path d="M3107 302 c-15 -2 -25 -7 -22 -12 3 -4 -5 -6 -17 -3 l-23 6 22 -23
c19 -21 25 -22 51 -11 17 7 29 19 28 27 -3 18 -7 20 -39 16z"/>
</g>
</svg>
